<svg version="1.1" id="Layer_1" xmlns="http://www.w3.org/2000/svg" xmlns:xlink="http://www.w3.org/1999/xlink" x="0px" y="0px"
	 width="100%" viewBox="0 0 156 161" enable-background="new 0 0 156 161" xml:space="preserve">
<path fill="#FEFEFF" opacity="1.000000" stroke="none" 
	d="
M86.000000,162.000000 
	C57.333336,162.000000 29.166674,162.000000 1.000008,162.000000 
	C1.000005,108.333344 1.000005,54.666687 1.000003,1.000022 
	C52.999985,1.000015 104.999969,1.000015 156.999969,1.000007 
	C156.999969,54.666645 156.999969,108.333290 156.999985,161.999969 
	C133.500000,162.000000 110.000000,162.000000 86.000000,162.000000 
M58.984051,144.088898 
	C58.984051,129.010757 58.984051,113.932617 58.984051,98.854477 
	C59.501572,98.528053 60.019093,98.201637 60.536613,97.875221 
	C61.300220,99.101891 61.918606,100.453369 62.849373,101.536369 
	C75.326653,116.054451 87.892876,130.496323 100.323959,145.053680 
	C103.228058,148.454514 106.434250,150.296631 111.086220,150.081512 
	C117.735085,149.774063 124.416199,150.176331 131.067017,149.890823 
	C132.944504,149.810226 135.723984,148.820251 136.340775,147.456406 
	C136.957962,146.091644 135.884903,143.330582 134.698700,141.879898 
	C122.788254,127.314072 110.693443,112.899086 98.668709,98.426552 
	C93.587608,92.311111 88.549698,86.159790 83.399521,79.912407 
	C84.995483,77.998566 86.252968,76.466431 87.535881,74.955879 
	C102.082260,57.828396 116.677116,40.741528 131.098557,23.509514 
	C132.273438,22.105665 133.091690,19.433117 132.554321,17.874678 
	C132.127335,16.636364 129.396988,15.585501 127.647644,15.517152 
	C120.828453,15.250721 113.949974,14.961337 107.182076,15.607612 
	C104.055885,15.906135 100.368172,17.632654 98.248970,19.925922 
	C88.083290,30.926548 78.384377,42.357750 68.479538,53.600658 
	C65.705688,56.749233 62.795307,59.777527 58.979172,63.909538 
	C58.979172,60.579292 58.979111,58.794186 58.979183,57.009083 
	C58.979679,45.348717 58.840645,33.685833 59.050842,22.029251 
	C59.132500,17.501097 57.143806,15.505898 52.925312,15.446095 
	C46.930614,15.361116 40.931229,15.349250 34.938248,15.491630 
	C30.952869,15.586313 29.026834,17.638199 29.034046,21.852814 
	C29.103584,62.497395 29.088039,103.142159 29.056248,143.786835 
	C29.053047,147.877258 30.781446,150.031677 34.994781,150.010544 
	C41.157963,149.979614 47.321457,149.985428 53.484718,150.005295 
	C56.876644,150.016235 58.831329,148.509476 58.984051,144.088898 
z"/>
<path fill="#1E50D8" opacity="1.000000" stroke="none" 
	d="
M58.983276,144.541534 
	C58.831329,148.509476 56.876644,150.016235 53.484718,150.005295 
	C47.321457,149.985428 41.157963,149.979614 34.994781,150.010544 
	C30.781446,150.031677 29.053047,147.877258 29.056248,143.786835 
	C29.088039,103.142159 29.103584,62.497395 29.034046,21.852814 
	C29.026834,17.638199 30.952869,15.586313 34.938248,15.491630 
	C40.931229,15.349250 46.930614,15.361116 52.925312,15.446095 
	C57.143806,15.505898 59.132500,17.501097 59.050842,22.029251 
	C58.840645,33.685833 58.979679,45.348717 58.979183,57.009083 
	C58.979111,58.794186 58.979172,60.579292 58.979172,63.909538 
	C62.795307,59.777527 65.705688,56.749233 68.479538,53.600658 
	C78.384377,42.357750 88.083290,30.926548 98.248970,19.925922 
	C100.368172,17.632654 104.055885,15.906135 107.182076,15.607612 
	C113.949974,14.961337 120.828453,15.250721 127.647644,15.517152 
	C129.396988,15.585501 132.127335,16.636364 132.554321,17.874678 
	C133.091690,19.433117 132.273438,22.105665 131.098557,23.509514 
	C116.677116,40.741528 102.082260,57.828396 87.535881,74.955879 
	C86.252968,76.466431 84.995483,77.998566 83.399521,79.912407 
	C88.549698,86.159790 93.587608,92.311111 98.668709,98.426552 
	C110.693443,112.899086 122.788254,127.314072 134.698700,141.879898 
	C135.884903,143.330582 136.957962,146.091644 136.340775,147.456406 
	C135.723984,148.820251 132.944504,149.810226 131.067017,149.890823 
	C124.416199,150.176331 117.735085,149.774063 111.086220,150.081512 
	C106.434250,150.296631 103.228058,148.454514 100.323959,145.053680 
	C87.892876,130.496323 75.326653,116.054451 62.849373,101.536369 
	C61.918606,100.453369 61.300220,99.101891 60.536613,97.875221 
	C60.019093,98.201637 59.501572,98.528053 58.984051,98.854477 
	C58.984051,113.932617 58.984051,129.010757 58.983276,144.541534 
z"/>
</svg>