<?xml version="1.0" standalone="no"?>
<!DOCTYPE svg PUBLIC "-//W3C//DTD SVG 20010904//EN"
 "http://www.w3.org/TR/2001/REC-SVG-20010904/DTD/svg10.dtd">
<svg version="1.0" xmlns="http://www.w3.org/2000/svg"
 width="624.000000pt" height="624.000000pt" viewBox="0 0 624.000000 624.000000"
 preserveAspectRatio="xMidYMid meet">
<metadata>
Created by potrace 1.14, written by Peter Selinger 2001-2017
</metadata>
<g transform="translate(0.000000,624.000000) scale(0.100000,-0.100000)"
fill="#000000" stroke="none">
<path d="M6228 4673 c1 -863 3 -1966 5 -2453 1 -487 3 219 5 1568 1 1348 -1
2452 -5 2452 -5 0 -7 -705 -5 -1567z"/>
<path d="M1313 5790 c-72 -15 -129 -46 -159 -86 l-29 -37 -3 -2556 c-3 -2837
-8 -2607 63 -2670 55 -48 98 -52 571 -49 473 3 473 3 527 67 14 17 29 46 32
64 3 18 8 457 10 977 2 520 5 951 6 958 5 28 23 14 99 -78 25 -29 77 -90 115
-134 39 -44 97 -111 129 -150 33 -39 93 -109 135 -156 42 -47 113 -128 156
-180 44 -52 141 -165 215 -250 74 -85 162 -186 195 -225 33 -38 86 -97 117
-130 32 -34 72 -81 89 -106 35 -48 70 -89 163 -190 34 -36 113 -128 176 -204
120 -144 180 -198 258 -237 l47 -23 545 0 545 0 42 23 c48 25 72 56 82 105 13
58 -6 107 -71 186 -34 41 -89 109 -122 150 -61 75 -74 91 -151 181 -22 25 -65
77 -95 114 -30 38 -96 116 -146 175 -49 58 -109 130 -133 160 -23 30 -73 91
-111 135 -109 129 -217 259 -325 391 -179 219 -236 289 -285 345 -27 30 -108
127 -180 215 -73 88 -151 183 -175 210 -188 220 -304 364 -322 398 -14 27 -13
31 25 80 22 29 77 93 123 142 45 50 99 113 119 140 20 28 71 86 112 130 41 44
108 123 150 176 42 53 103 125 135 160 32 35 76 86 98 114 22 27 76 91 120
141 44 50 148 171 230 269 83 98 168 199 190 224 23 25 58 69 80 96 22 28 85
102 141 165 57 64 124 143 151 177 26 33 80 97 118 141 114 131 142 166 164
207 43 81 12 173 -74 214 -76 36 -179 43 -624 38 -374 -4 -411 -6 -472 -24
-112 -35 -152 -64 -234 -168 -38 -48 -63 -76 -186 -209 -31 -34 -83 -92 -115
-131 -32 -38 -63 -74 -70 -80 -13 -12 -183 -207 -238 -273 -21 -26 -78 -90
-125 -142 -48 -52 -109 -122 -136 -155 -42 -51 -76 -88 -150 -169 -6 -6 -49
-56 -95 -111 -47 -55 -122 -138 -166 -185 -45 -47 -119 -129 -164 -182 -45
-54 -86 -98 -90 -98 -11 0 -9 -114 -15 895 -2 473 -7 874 -10 892 -8 43 -71
98 -137 119 -45 14 -111 17 -438 20 -212 2 -404 -1 -427 -6z"/>
<path d="M6232 1075 c0 -16 2 -22 5 -12 2 9 2 23 0 30 -3 6 -5 -1 -5 -18z"/>
<path d="M6234 620 c0 -190 2 -267 3 -172 2 94 2 250 0 345 -1 94 -3 17 -3
-173z"/>
<path d="M6217 23 c-12 -11 -8 -23 8 -23 8 0 15 7 15 15 0 16 -12 20 -23 8z"/>
<path d="M307 3 c172 -2 454 -2 625 0 172 1 32 2 -312 2 -344 0 -484 -1 -313
-2z"/>
<path d="M3273 3 c54 -2 139 -2 190 0 51 1 7 3 -98 3 -104 0 -146 -2 -92 -3z"/>
<path d="M3923 3 c37 -2 97 -2 135 0 37 2 6 3 -68 3 -74 0 -105 -1 -67 -3z"/>
</g>
</svg>
