<svg version="1.1" id="Layer_1" xmlns="http://www.w3.org/2000/svg" xmlns:xlink="http://www.w3.org/1999/xlink" x="0px" y="0px"
	 width="100%" viewBox="0 0 371 371" enable-background="new 0 0 371 371" xml:space="preserve">
<path fill="#1C4ED7" opacity="1.000000" stroke="none" 
	d="
M203.000000,372.000000 
	C135.355957,372.000000 68.211922,372.000000 1.033941,372.000000 
	C1.033941,248.397629 1.033941,124.795250 1.033941,1.096433 
	C124.560654,1.096433 248.121399,1.096433 371.841064,1.096433 
	C371.841064,124.666504 371.841064,248.333237 371.841064,372.000000 
	C315.795319,372.000000 259.647675,372.000000 203.000000,372.000000 
M128.995834,175.993408 
	C128.995834,175.993408 129.072205,175.990128 128.451416,176.277969 
	C128.369873,176.714996 128.288330,177.152023 128.230698,177.648895 
	C128.230698,177.648895 128.190506,177.699265 127.553185,178.039459 
	C126.702225,179.386780 125.851265,180.734100 124.999023,181.996185 
	C124.999023,181.996185 125.084244,181.994446 124.474098,182.221573 
	C123.986122,183.177292 123.498146,184.133011 123.007271,185.002380 
	C123.007271,185.002380 123.093636,185.000397 122.455711,185.254730 
	C122.034157,186.302032 121.612602,187.349335 121.212433,188.615631 
	C121.212433,188.615631 121.088646,188.797546 120.443649,189.110825 
	C120.029503,189.908401 119.615356,190.705978 119.235046,191.652679 
	C119.235046,191.652679 119.127892,191.761765 118.581841,192.041031 
	C118.383644,192.381424 118.185448,192.721802 117.985764,192.985229 
	C117.985764,192.985229 118.062630,192.981018 117.448280,193.265640 
	C117.367310,193.697495 117.286339,194.129364 117.242325,194.651291 
	C117.242325,194.651291 117.171432,194.718033 116.617737,195.023239 
	C116.412918,195.373169 116.208099,195.723099 116.003433,195.996674 
	C116.003433,195.996674 116.079788,195.996948 115.467598,196.217270 
	C114.982430,197.173325 114.497269,198.129395 114.003349,199.002914 
	C114.003349,199.002914 114.085945,198.994736 113.463402,199.309052 
	C113.388611,199.756424 113.313812,200.203781 113.209564,200.485413 
	C113.209564,200.485413 113.274025,200.641083 112.685310,201.062256 
	C112.241859,202.002289 111.798416,202.942322 111.932091,204.389740 
	C123.700432,204.194687 135.546753,204.778793 147.217697,203.610596 
	C162.367294,202.094177 174.722198,194.345993 184.738785,182.985672 
	C187.197769,180.196823 189.458893,177.581772 193.515259,180.015900 
	C197.376266,182.332809 197.238739,185.430527 194.946182,189.555252 
	C177.895691,209.030655 156.252548,217.376831 130.591812,216.885712 
	C109.270584,216.477631 87.935219,216.768524 66.606384,216.836243 
	C62.965137,216.847794 59.136814,216.656067 55.721802,217.664856 
	C47.133190,220.201904 41.747353,230.496552 43.224258,240.451126 
	C44.254604,247.395844 55.017117,256.101715 62.628426,255.918167 
	C65.210815,255.855896 67.803314,254.683792 70.347687,254.821701 
	C87.296806,255.740234 104.304512,256.254272 121.150589,258.160095 
	C132.403305,259.433167 143.595490,262.189697 154.493546,265.379730 
	C165.162262,268.502594 175.283798,273.459045 185.896667,276.816772 
	C202.478836,282.062988 219.796768,281.869446 236.792007,280.654144 
	C248.893951,279.788727 261.013031,276.693970 272.699768,273.181305 
	C284.560089,269.616516 295.789734,264.001923 307.520844,259.934723 
	C312.151825,258.329163 312.867523,255.801239 312.853973,251.602051 
	C312.740692,216.442825 312.789612,181.283066 312.789642,146.123474 
	C312.789642,144.337463 312.789642,142.551453 312.789642,140.247131 
	C309.305176,140.247131 306.302582,140.587631 303.404785,140.181091 
	C295.758698,139.108383 287.858185,138.637756 280.590820,136.284821 
	C247.523132,125.578598 214.620148,114.360771 181.718765,103.148491 
	C178.633545,102.097092 176.753494,102.423737 175.068176,105.080482 
	C167.684219,116.720482 160.266159,128.338821 152.315079,140.189423 
	C151.876831,140.819489 151.438599,141.449570 150.997986,141.995529 
	C150.997986,141.995529 151.082077,141.992599 150.472809,142.220871 
	C149.983505,143.175354 149.494202,144.129837 149.002472,144.998581 
	C149.002472,144.998581 149.088211,144.996384 148.456970,145.246613 
	C148.033203,146.274658 147.609451,147.302704 147.201080,148.593109 
	C147.201080,148.593109 147.065262,148.818100 146.433502,149.115570 
	C146.020432,149.887054 145.607361,150.658524 145.219620,151.627182 
	C145.219620,151.627182 145.101288,151.786957 144.560410,152.050278 
	C144.365921,152.384644 144.171432,152.718994 143.976913,152.977234 
	C143.976913,152.977234 144.052902,152.972946 143.446259,153.249695 
	C143.365173,153.673981 143.284088,154.098267 143.252090,154.649002 
	C143.252090,154.649002 143.150192,154.738541 142.599670,155.030884 
	C142.397369,155.376007 142.195053,155.721115 141.990845,155.989441 
	C141.990845,155.989441 142.067581,155.985703 141.449738,156.272064 
	C141.368454,156.706726 141.287170,157.141388 141.235657,157.647141 
	C141.235657,157.647141 141.184174,157.704498 140.547989,158.043320 
	C139.698029,159.388748 138.848083,160.734177 137.996994,161.994461 
	C137.996994,161.994461 138.082108,161.992554 137.472702,162.221207 
	C136.984650,163.176544 136.496597,164.131897 136.005798,165.001328 
	C136.005798,165.001328 136.091751,164.999268 135.456299,165.251465 
	C135.033875,166.291214 134.611465,167.330948 134.208420,168.605759 
	C134.208420,168.605759 134.080856,168.804138 133.442078,169.110977 
	C133.026855,169.896057 132.611633,170.681152 132.227554,171.637909 
	C132.227554,171.637909 132.116425,171.772430 131.572830,172.045486 
	C131.376373,172.383408 131.179916,172.721344 130.982300,172.982269 
	C130.982300,172.982269 131.059174,172.977844 130.447403,173.261078 
	C130.366623,173.690811 130.285843,174.120560 130.247299,174.654312 
	C130.247299,174.654312 130.162323,174.727676 129.609604,175.026596 
	C129.405777,175.374329 129.201950,175.722076 128.995834,175.993408 
M89.451569,134.933975 
	C89.764793,134.776825 89.938904,134.523956 90.053169,133.514877 
	C91.045006,132.095444 92.036835,130.675995 93.631737,128.880432 
	C97.763794,122.607475 101.895851,116.334526 106.583115,109.677803 
	C109.404037,104.785873 112.224960,99.893936 115.026062,95.042778 
	C115.026062,95.042778 114.982094,95.031738 115.427971,94.921555 
	C115.720116,94.773407 115.902855,94.539742 116.060036,93.506950 
	C118.055489,90.358810 120.050934,87.210678 122.025208,84.095940 
	C115.548264,78.836960 104.903809,78.832504 99.154053,83.702728 
	C94.494827,87.649223 89.545616,91.256279 84.930092,95.250832 
	C76.161827,102.839439 65.703568,108.804848 60.864433,120.229507 
	C59.458374,123.549065 57.739456,126.752632 55.964760,129.896942 
	C39.829037,158.485260 23.725498,187.092316 7.429000,215.588913 
	C3.316517,222.780151 5.659477,234.998535 16.602146,239.027618 
	C19.407101,240.060379 21.202038,239.844604 23.035025,236.905746 
	C29.485483,226.563675 36.321854,216.462296 43.621178,205.897263 
	C46.424980,201.261887 49.228783,196.626495 52.018772,192.031921 
	C52.018772,192.031921 51.976616,192.023041 52.451061,191.928711 
	C52.767189,191.769485 52.941067,191.513626 53.060505,190.487366 
	C54.059319,189.038834 55.058132,187.590302 56.668381,185.822906 
	C60.814461,179.741135 65.051521,173.718338 69.054062,167.543518 
	C70.341293,165.557663 71.010231,163.171036 71.996819,161.003510 
	C71.996819,161.003510 71.952591,160.978165 72.572060,160.829742 
	C72.751167,160.246429 72.930275,159.663116 73.021690,159.089233 
	C73.021690,159.089233 73.110313,159.105301 73.797920,159.035858 
	C76.180389,155.173050 78.562859,151.310242 80.998329,147.491226 
	C80.998329,147.491226 80.930862,147.478073 81.672211,147.161606 
	C82.094467,146.256882 82.516731,145.352158 83.000565,144.483841 
	C83.000565,144.483841 82.929726,144.475220 83.400803,144.213333 
	C83.439964,143.742722 83.479134,143.272095 83.638893,142.569305 
	C83.740562,142.421616 83.872986,142.310623 84.738266,142.093872 
	C86.172546,139.728653 87.606827,137.363434 89.023849,135.038254 
	C89.023849,135.038254 88.981201,135.029236 89.451569,134.933975 
M168.558929,93.505554 
	C168.683670,92.818192 168.808426,92.130836 168.996033,91.492256 
	C168.996033,91.492256 168.919464,91.470787 169.606583,91.186928 
	C170.057358,90.113350 170.508133,89.039772 170.994659,87.999695 
	C170.994659,87.999695 170.953461,87.965614 171.641296,87.966331 
	C177.736084,78.485992 183.830872,69.005646 189.827316,58.837872 
	C189.564941,57.461025 189.786453,55.398956 188.962616,54.817154 
	C183.067734,50.654121 176.683487,47.147057 171.008682,42.721275 
	C166.577194,39.265160 164.695129,41.276886 162.373322,44.891396 
	C144.711975,72.385963 126.981880,99.836449 109.241402,127.280113 
	C93.201538,152.093018 77.121483,176.879929 60.509777,202.104019 
	C58.694130,205.292084 61.140572,204.844757 62.902802,204.848434 
	C72.613419,204.868637 82.325195,204.923264 92.033501,204.770447 
	C93.374573,204.749329 94.698547,203.641830 96.000000,203.000000 
	C96.000000,203.000000 96.031418,203.036499 96.726425,203.023911 
	C101.827911,195.014633 106.929398,187.005341 112.016678,179.026199 
	C112.016678,179.026199 111.983612,179.022079 112.475578,178.927170 
	C112.802994,178.755188 112.972488,178.484406 113.082306,177.422607 
	C113.861320,176.271896 114.640335,175.121185 115.773209,173.781219 
	C115.982262,173.589691 116.089737,173.352249 116.023262,173.013031 
	C116.023262,173.013031 116.076546,173.087128 116.692604,172.802719 
	C119.357857,168.435242 122.023102,164.067764 124.773827,159.785400 
	C124.773827,159.785400 124.668533,159.844284 125.348160,159.672333 
	C129.223648,153.266556 133.099136,146.860794 137.000351,140.501633 
	C137.000351,140.501633 136.947906,140.492493 137.640915,140.248215 
	C142.766586,132.734421 147.921722,125.240341 152.978668,117.680565 
	C153.576355,116.787079 153.635696,115.533470 153.998032,114.491074 
	C153.998032,114.491074 153.929947,114.477783 154.671616,114.161636 
	C155.093872,113.256721 155.516129,112.351799 156.000351,111.483681 
	C156.000351,111.483681 155.928955,111.475044 156.401459,111.211288 
	C156.437149,110.738922 156.472839,110.266548 156.626816,109.562866 
	C156.728577,109.416641 156.860870,109.307411 157.720108,109.100578 
	C159.154266,107.092438 160.588425,105.084290 162.578033,102.695694 
	C164.404449,99.806671 166.230865,96.917648 168.558929,93.505554 
M99.607101,291.981750 
	C99.768623,291.682404 99.930145,291.383057 99.989761,291.051086 
	C99.989761,291.051086 100.080292,291.109131 100.784592,291.035187 
	C102.381615,287.893250 104.960976,284.861084 105.327408,281.581604 
	C105.787163,277.467041 104.432732,273.149719 103.309563,268.466095 
	C101.616295,268.314911 99.923019,268.163696 97.598717,267.398865 
	C89.971016,267.274292 82.343216,267.091614 74.715752,267.104492 
	C73.841133,267.105957 72.968361,268.199524 72.339066,269.591431 
	C72.466507,274.039093 72.274132,278.524506 72.793373,282.925964 
	C73.658043,290.255432 78.992233,293.936157 85.656837,297.269073 
	C90.989189,297.737793 96.167503,297.807007 99.049835,291.989197 
	C99.049835,291.989197 99.086624,292.092865 99.607101,291.981750 
M363.557526,278.795746 
	C363.698242,278.181793 363.838959,277.567871 364.245361,276.159851 
	C364.546875,274.055664 365.088959,271.953735 365.108856,269.846863 
	C365.201599,260.036133 365.149963,250.224060 365.149963,240.412460 
	C365.149933,201.664963 365.121063,162.917435 365.185608,124.170044 
	C365.193817,119.252289 364.664856,114.923981 358.641418,112.606827 
	C353.247528,112.404022 347.852722,112.030701 342.460022,112.059059 
	C338.935364,112.077591 335.413757,112.678520 331.239716,113.217323 
	C329.523895,114.694572 327.808075,116.171822 325.487457,118.318115 
	C325.325775,119.791245 325.023468,121.264313 325.022736,122.737518 
	C324.998169,171.978867 324.993347,221.220245 325.043793,270.461548 
	C325.045410,272.029572 325.658142,273.596985 326.240723,275.722504 
	C327.017792,277.128876 327.794861,278.535278 329.312897,280.479767 
	C339.724335,280.660217 350.135590,280.888184 360.547607,280.929230 
	C361.363892,280.932465 362.185303,279.631683 362.996155,279.004456 
	C362.996155,279.004456 362.929352,278.991699 363.557526,278.795746 
M49.986900,274.535950 
	C51.298557,272.366577 52.610218,270.197205 54.173668,267.611359 
	C43.924644,263.886047 36.534958,257.067383 31.701971,247.474884 
	C18.260925,264.848785 6.778525,282.239807 12.066029,305.278961 
	C30.866047,299.091370 38.582443,292.836639 49.986900,274.535950 
M177.785355,31.767324 
	C183.673004,35.602596 189.475937,39.581264 195.519623,43.152458 
	C196.732193,43.868958 199.761307,43.693172 200.411636,42.802929 
	C203.287155,38.866589 205.699203,34.574661 208.085693,30.303432 
	C210.054031,26.780581 209.146622,23.430891 206.071457,21.180548 
	C201.717316,17.994286 197.091324,15.156386 192.444214,12.401150 
	C188.928406,10.316650 185.458252,10.390610 182.894806,14.085657 
	C179.575653,18.869982 176.380127,23.740067 173.126816,28.580029 
	C174.772247,29.722298 175.968109,30.552481 177.785355,31.767324 
M139.002151,295.871918 
	C147.838303,290.629028 150.016586,286.418182 148.420883,277.005798 
	C138.384842,274.632843 128.160187,272.215302 117.348701,269.658997 
	C117.348701,274.562164 117.324730,278.183777 117.353325,281.804993 
	C117.430168,291.537872 130.615646,299.744202 139.002151,295.871918 
z"/>
<path fill="#FDFDFD" opacity="1.000000" stroke="none" 
	d="
M145.101288,151.786957 
	C145.101288,151.786957 145.219620,151.627182 145.518707,151.372284 
	C146.233612,150.350952 146.649445,149.584518 147.065262,148.818100 
	C147.065262,148.818100 147.201080,148.593109 147.513458,148.309784 
	C148.246628,147.016418 148.667419,146.006393 149.088211,144.996384 
	C149.088211,144.996384 149.002472,144.998581 149.359314,145.016327 
	C150.171463,144.020248 150.626770,143.006424 151.082077,141.992599 
	C151.082077,141.992599 150.997986,141.995529 151.325699,142.032288 
	C152.055771,141.367706 152.458115,140.666367 152.860474,139.965027 
	C160.266159,128.338821 167.684219,116.720482 175.068176,105.080482 
	C176.753494,102.423737 178.633545,102.097092 181.718765,103.148491 
	C214.620148,114.360771 247.523132,125.578598 280.590820,136.284821 
	C287.858185,138.637756 295.758698,139.108383 303.404785,140.181091 
	C306.302582,140.587631 309.305176,140.247131 312.789642,140.247131 
	C312.789642,142.551453 312.789642,144.337463 312.789642,146.123474 
	C312.789612,181.283066 312.740692,216.442825 312.853973,251.602051 
	C312.867523,255.801239 312.151825,258.329163 307.520844,259.934723 
	C295.789734,264.001923 284.560089,269.616516 272.699768,273.181305 
	C261.013031,276.693970 248.893951,279.788727 236.792007,280.654144 
	C219.796768,281.869446 202.478836,282.062988 185.896667,276.816772 
	C175.283798,273.459045 165.162262,268.502594 154.493546,265.379730 
	C143.595490,262.189697 132.403305,259.433167 121.150589,258.160095 
	C104.304512,256.254272 87.296806,255.740234 70.347687,254.821701 
	C67.803314,254.683792 65.210815,255.855896 62.628426,255.918167 
	C55.017117,256.101715 44.254604,247.395844 43.224258,240.451126 
	C41.747353,230.496552 47.133190,220.201904 55.721802,217.664856 
	C59.136814,216.656067 62.965137,216.847794 66.606384,216.836243 
	C87.935219,216.768524 109.270584,216.477631 130.591812,216.885712 
	C156.252548,217.376831 177.895691,209.030655 195.340485,189.110992 
	C198.702026,185.028183 198.108337,181.842484 194.493683,179.061478 
	C191.249100,176.565140 187.691818,177.039764 184.817566,180.344879 
	C172.958054,193.982086 158.621902,202.751907 139.555832,203.088562 
	C131.680603,203.020157 124.269844,203.121948 116.868477,202.904221 
	C115.649185,202.868362 114.471130,201.430832 113.274025,200.641083 
	C113.274025,200.641083 113.209564,200.485413 113.516258,200.382416 
	C113.910622,199.851181 113.998283,199.422958 114.085945,198.994736 
	C114.085945,198.994736 114.003349,199.002914 114.362762,199.004990 
	C115.174713,198.003693 115.627251,197.000320 116.079788,195.996948 
	C116.079788,195.996948 116.003433,195.996674 116.335709,195.964355 
	C116.835793,195.527374 117.003616,195.122711 117.171432,194.718033 
	C117.171432,194.718033 117.242325,194.651291 117.478729,194.406219 
	C117.830971,193.767776 117.946800,193.374405 118.062622,192.981018 
	C118.062630,192.981018 117.985764,192.985229 118.302620,192.948364 
	C118.788948,192.528259 118.958412,192.145004 119.127884,191.761765 
	C119.127892,191.761765 119.235046,191.652679 119.532486,191.410706 
	C120.249504,190.378342 120.669075,189.587952 121.088646,188.797546 
	C121.088646,188.797546 121.212433,188.615631 121.522270,188.343292 
	C122.252617,187.047440 122.673134,186.023926 123.093643,185.000397 
	C123.093636,185.000397 123.007271,185.002380 123.365631,185.024353 
	C124.177406,184.029022 124.630821,183.011734 125.084236,181.994446 
	C125.084244,181.994446 124.999023,181.996185 125.355934,182.013657 
	C126.538734,180.587173 127.364616,179.143219 128.190506,177.699265 
	C128.190506,177.699265 128.230698,177.648895 128.486832,177.423676 
	C128.852722,176.795670 128.962463,176.392899 129.072205,175.990128 
	C129.072205,175.990128 128.995834,175.993408 129.324295,175.958389 
	C129.822601,175.524811 129.992462,175.126236 130.162323,174.727676 
	C130.162323,174.727676 130.247299,174.654312 130.476517,174.400986 
	C130.823547,173.757721 130.941360,173.367783 131.059174,172.977844 
	C131.059174,172.977844 130.982300,172.982269 131.295563,172.944748 
	C131.778030,172.528961 131.947220,172.150696 132.116425,171.772430 
	C132.116425,171.772430 132.227554,171.637909 132.526016,171.390076 
	C133.243271,170.362869 133.662064,169.583511 134.080856,168.804138 
	C134.080856,168.804138 134.208420,168.605759 134.517975,168.328506 
	C135.248947,167.033920 135.670349,166.016602 136.091751,164.999268 
	C136.091751,164.999268 136.005798,165.001328 136.363953,165.022583 
	C137.175446,164.026749 137.628769,163.009644 138.082108,161.992554 
	C138.082108,161.992554 137.996994,161.994461 138.353455,162.010193 
	C139.534668,160.585464 140.359421,159.144989 141.184174,157.704498 
	C141.184174,157.704498 141.235657,157.647141 141.482422,157.413818 
	C141.841965,156.782242 141.954773,156.383972 142.067581,155.985703 
	C142.067581,155.985703 141.990845,155.989441 142.315002,155.952911 
	C142.809494,155.523773 142.979843,155.131165 143.150192,154.738541 
	C143.150192,154.738541 143.252090,154.649002 143.468506,154.382843 
	C143.807587,153.735428 143.930237,153.354187 144.052887,152.972946 
	C144.052902,152.972946 143.976913,152.977234 144.284454,152.939423 
	C144.761765,152.530075 144.931534,152.158508 145.101288,151.786957 
z"/>
<path fill="#FDFDFD" opacity="1.000000" stroke="none" 
	d="
M358.983398,113.421219 
	C364.664856,114.923981 365.193817,119.252289 365.185608,124.170044 
	C365.121063,162.917435 365.149933,201.664963 365.149963,240.412460 
	C365.149963,250.224060 365.201599,260.036133 365.108856,269.846863 
	C365.088959,271.953735 364.546875,274.055664 363.912109,276.769470 
	C363.362366,277.916626 363.145844,278.454163 362.929352,278.991699 
	C362.929352,278.991699 362.996155,279.004456 362.575623,278.992371 
	C360.234680,279.334930 358.316559,279.979584 356.393372,279.995148 
	C347.120331,280.070282 337.845886,279.975891 328.571960,279.941650 
	C327.794861,278.535278 327.017792,277.128876 326.211792,274.968262 
	C326.195129,260.915314 326.226929,247.616638 326.215973,234.317978 
	C326.183899,195.428345 326.134735,156.538696 326.092255,117.649063 
	C327.808075,116.171822 329.523895,114.694572 332.032227,113.228790 
	C341.544281,113.300583 350.263824,113.360901 358.983398,113.421219 
z"/>
<path fill="#F9F9F9" opacity="1.000000" stroke="none" 
	d="
M61.059151,201.678299 
	C77.121483,176.879929 93.201538,152.093018 109.241402,127.280113 
	C126.981880,99.836449 144.711975,72.385963 162.373322,44.891396 
	C164.695129,41.276886 166.577194,39.265160 171.008682,42.721275 
	C176.683487,47.147057 183.067734,50.654121 188.962616,54.817154 
	C189.786453,55.398956 189.564941,57.461025 189.532379,59.297562 
	C183.142776,69.160034 177.048111,78.562820 170.953461,87.965607 
	C170.953461,87.965614 170.994659,87.999695 170.658417,88.154816 
	C169.854584,89.363548 169.387024,90.417168 168.919464,91.470787 
	C168.919464,91.470787 168.996033,91.492256 168.628326,91.549294 
	C167.776031,92.370628 167.291458,93.134926 166.569916,94.123642 
	C164.829330,96.738754 163.325684,99.129448 161.552292,101.747375 
	C159.862930,104.394791 158.443314,106.814987 157.023697,109.235176 
	C156.860870,109.307411 156.728577,109.416641 156.272278,110.047371 
	C155.921463,110.846260 155.925201,111.160652 155.928955,111.475044 
	C155.928955,111.475044 156.000351,111.483681 155.592377,111.599991 
	C154.766251,112.636787 154.348099,113.557289 153.929962,114.477783 
	C153.929947,114.477783 153.998032,114.491074 153.626251,114.582001 
	C147.818954,123.279457 142.383438,131.885971 136.947906,140.492493 
	C136.947906,140.492493 137.000351,140.501633 136.654022,140.622421 
	C132.427963,147.110229 128.548248,153.477264 124.668533,159.844284 
	C124.668533,159.844284 124.773827,159.785400 124.384666,159.742279 
	C121.355858,164.161819 118.716202,168.624466 116.076546,173.087128 
	C116.076546,173.087128 116.023262,173.013031 115.897339,173.045914 
	C115.654068,173.376022 115.536705,173.673248 115.419342,173.970474 
	C114.640335,175.121185 113.861320,176.271896 112.841866,177.896179 
	C112.292145,178.489288 112.086205,178.706726 111.983612,179.022079 
	C111.983612,179.022079 112.016678,179.026199 111.678200,179.062897 
	C106.236954,187.078568 101.134186,195.057541 96.031418,203.036499 
	C96.031418,203.036499 96.000000,203.000000 95.545547,203.045105 
	C85.368164,203.099808 75.644409,203.175537 65.923119,203.054169 
	C64.296326,203.033875 62.680199,202.158554 61.059151,201.678299 
z"/>
<path fill="#F8F8F8" opacity="1.000000" stroke="none" 
	d="
M93.028671,129.256561 
	C92.036835,130.675995 91.045006,132.095444 89.824219,133.962448 
	C89.292877,134.519470 89.088188,134.725876 88.981201,135.029236 
	C88.981201,135.029236 89.023849,135.038254 88.690445,135.068680 
	C86.916740,137.478180 85.476448,139.857239 84.036148,142.236298 
	C83.872986,142.310623 83.740562,142.421616 83.281128,143.051498 
	C82.925484,143.847534 82.927605,144.161377 82.929726,144.475220 
	C82.929726,144.475220 83.000565,144.483841 82.593742,144.601135 
	C81.768234,145.638306 81.349548,146.558182 80.930862,147.478073 
	C80.930862,147.478073 80.998329,147.491226 80.627785,147.584381 
	C77.874931,151.486786 75.492622,155.296036 73.110313,159.105301 
	C73.110313,159.105301 73.021690,159.089233 72.801666,159.238220 
	C72.371956,159.917511 72.162277,160.447845 71.952591,160.978165 
	C71.952591,160.978165 71.996819,161.003510 71.678741,161.137238 
	C69.058472,164.721832 66.641769,168.102814 64.482140,171.640717 
	C61.570126,176.411148 58.855991,181.302368 56.056946,186.141769 
	C55.058132,187.590302 54.059319,189.038834 52.824783,190.941589 
	C52.279278,191.501678 52.075130,191.710754 51.976616,192.023041 
	C51.976616,192.023041 52.018772,192.031921 51.681866,192.060440 
	C48.567238,196.815842 45.789516,201.542709 43.011795,206.269592 
	C36.321854,216.462296 29.485483,226.563675 23.035025,236.905746 
	C21.202038,239.844604 19.407101,240.060379 16.602146,239.027618 
	C5.659477,234.998535 3.316517,222.780151 7.429000,215.588913 
	C23.725498,187.092316 39.829037,158.485260 55.964760,129.896942 
	C57.739456,126.752632 59.458374,123.549065 60.864433,120.229507 
	C65.703568,108.804848 76.161827,102.839439 84.930092,95.250832 
	C89.545616,91.256279 94.494827,87.649223 99.154053,83.702728 
	C104.903809,78.832504 115.548264,78.836960 122.025208,84.095940 
	C120.050934,87.210678 118.055489,90.358810 115.830460,93.974411 
	C115.304901,94.544319 115.098633,94.740944 114.982094,95.031738 
	C114.982094,95.031738 115.026062,95.042778 114.692642,95.073318 
	C111.478218,99.582588 108.597221,104.061302 105.448517,108.759499 
	C101.130104,115.738167 97.079391,122.497368 93.028671,129.256561 
z"/>
<path fill="#F6F6F6" opacity="1.000000" stroke="none" 
	d="
M49.714333,274.792358 
	C38.582443,292.836639 30.866047,299.091370 12.066029,305.278961 
	C6.778525,282.239807 18.260925,264.848785 31.701971,247.474884 
	C36.534958,257.067383 43.924644,263.886047 54.173668,267.611359 
	C52.610218,270.197205 51.298557,272.366577 49.714333,274.792358 
z"/>
<path fill="#F7F7F8" opacity="1.000000" stroke="none" 
	d="
M98.229752,268.012512 
	C99.923019,268.163696 101.616295,268.314911 103.573936,269.170959 
	C104.065132,277.215454 104.814117,284.647491 100.080292,291.109131 
	C100.080292,291.109131 99.989761,291.051086 99.802597,291.154419 
	C99.439171,291.536102 99.262901,291.814484 99.086624,292.092865 
	C99.086624,292.092865 99.049835,291.989197 98.729858,292.126953 
	C93.976685,293.764954 89.543480,295.265167 85.110275,296.765381 
	C78.992233,293.936157 73.658043,290.255432 72.793373,282.925964 
	C72.274132,278.524506 72.466507,274.039093 72.675995,269.096313 
	C81.418541,268.404968 89.824142,268.208740 98.229752,268.012512 
z"/>
<path fill="#F4F4F4" opacity="1.000000" stroke="none" 
	d="
M177.474670,31.574993 
	C175.968109,30.552481 174.772247,29.722298 173.126816,28.580029 
	C176.380127,23.740067 179.575653,18.869982 182.894806,14.085657 
	C185.458252,10.390610 188.928406,10.316650 192.444214,12.401150 
	C197.091324,15.156386 201.717316,17.994286 206.071457,21.180548 
	C209.146622,23.430891 210.054031,26.780581 208.085693,30.303432 
	C205.699203,34.574661 203.287155,38.866589 200.411636,42.802929 
	C199.761307,43.693172 196.732193,43.868958 195.519623,43.152458 
	C189.475937,39.581264 183.673004,35.602596 177.474670,31.574993 
z"/>
<path fill="#F6F6F6" opacity="1.000000" stroke="none" 
	d="
M138.613800,295.956726 
	C130.615646,299.744202 117.430168,291.537872 117.353325,281.804993 
	C117.324730,278.183777 117.348701,274.562164 117.348701,269.658997 
	C128.160187,272.215302 138.384842,274.632843 148.420883,277.005798 
	C150.016586,286.418182 147.838303,290.629028 138.613800,295.956726 
z"/>
<path fill="#67718A" opacity="1.000000" stroke="none" 
	d="
M140.023438,203.152069 
	C158.621902,202.751907 172.958054,193.982086 184.817566,180.344879 
	C187.691818,177.039764 191.249100,176.565140 194.493683,179.061478 
	C198.108337,181.842484 198.702026,185.028183 195.409576,188.759369 
	C197.238739,185.430527 197.376266,182.332809 193.515259,180.015900 
	C189.458893,177.581772 187.197769,180.196823 184.738785,182.985672 
	C174.722198,194.345993 162.367294,202.094177 147.217697,203.610596 
	C135.546753,204.778793 123.700432,204.194687 112.083984,204.145645 
	C121.498390,203.651718 130.760910,203.401901 140.023438,203.152069 
z"/>
<path fill="#4B546A" opacity="1.000000" stroke="none" 
	d="
M325.789856,117.983589 
	C326.134735,156.538696 326.183899,195.428345 326.215973,234.317978 
	C326.226929,247.616638 326.195129,260.915314 326.084412,274.689331 
	C325.658142,273.596985 325.045410,272.029572 325.043793,270.461548 
	C324.993347,221.220245 324.998169,171.978867 325.022736,122.737518 
	C325.023468,121.264313 325.325775,119.791245 325.789856,117.983589 
z"/>
<path fill="#5A6992" opacity="1.000000" stroke="none" 
	d="
M60.784462,201.891159 
	C62.680199,202.158554 64.296326,203.033875 65.923119,203.054169 
	C75.644409,203.175537 85.368164,203.099808 95.560760,203.063721 
	C94.698547,203.641830 93.374573,204.749329 92.033501,204.770447 
	C82.325195,204.923264 72.613419,204.868637 62.902802,204.848434 
	C61.140572,204.844757 58.694130,205.292084 60.784462,201.891159 
z"/>
<path fill="#526088" opacity="1.000000" stroke="none" 
	d="
M171.297363,87.965973 
	C177.048111,78.562820 183.142776,69.160034 189.581558,59.641277 
	C183.830872,69.005646 177.736084,78.485992 171.297363,87.965973 
z"/>
<path fill="#52618A" opacity="1.000000" stroke="none" 
	d="
M137.294418,140.370361 
	C142.383438,131.885971 147.818954,123.279457 153.599533,114.559868 
	C153.635696,115.533470 153.576355,116.787079 152.978668,117.680565 
	C147.921722,125.240341 142.766586,132.734421 137.294418,140.370361 
z"/>
<path fill="#556389" opacity="1.000000" stroke="none" 
	d="
M56.362663,185.982330 
	C58.855991,181.302368 61.570126,176.411148 64.482140,171.640717 
	C66.641769,168.102814 69.058472,164.721832 71.661354,161.119354 
	C71.010231,163.171036 70.341293,165.557663 69.054062,167.543518 
	C65.051521,173.718338 60.814461,179.741135 56.362663,185.982330 
z"/>
<path fill="#5A6992" opacity="1.000000" stroke="none" 
	d="
M96.378922,203.030212 
	C101.134186,195.057541 106.236954,187.078568 111.685303,179.047836 
	C106.929398,187.005341 101.827911,195.014633 96.378922,203.030212 
z"/>
<path fill="#646D88" opacity="1.000000" stroke="none" 
	d="
M100.432442,291.072144 
	C104.814117,284.647491 104.065132,277.215454 103.849792,269.397888 
	C104.432732,273.149719 105.787163,277.467041 105.327408,281.581604 
	C104.960976,284.861084 102.381615,287.893250 100.432442,291.072144 
z"/>
<path fill="#566389" opacity="1.000000" stroke="none" 
	d="
M93.330200,129.068497 
	C97.079391,122.497368 101.130104,115.738167 105.533943,109.138245 
	C105.934006,109.552193 105.980957,109.806885 106.027908,110.061584 
	C101.895851,116.334526 97.763794,122.607475 93.330200,129.068497 
z"/>
<path fill="#4E5D85" opacity="1.000000" stroke="none" 
	d="
M125.008347,159.758301 
	C128.548248,153.477264 132.427963,147.110229 136.641144,140.599121 
	C133.099136,146.860794 129.223648,153.266556 125.008347,159.758301 
z"/>
<path fill="#848587" opacity="1.000000" stroke="none" 
	d="
M328.942444,280.210693 
	C337.845886,279.975891 347.120331,280.070282 356.393372,279.995148 
	C358.316559,279.979584 360.234680,279.334930 362.579742,278.958618 
	C362.185303,279.631683 361.363892,280.932465 360.547607,280.929230 
	C350.135590,280.888184 339.724335,280.660217 328.942444,280.210693 
z"/>
<path fill="#838486" opacity="1.000000" stroke="none" 
	d="
M139.555832,203.088562 
	C130.760910,203.401901 121.498390,203.651718 111.795418,203.891953 
	C111.798416,202.942322 112.241859,202.002289 112.979668,200.851669 
	C114.471130,201.430832 115.649185,202.868362 116.868477,202.904221 
	C124.269844,203.121948 131.680603,203.020157 139.555832,203.088562 
z"/>
<path fill="#505E86" opacity="1.000000" stroke="none" 
	d="
M106.305511,109.869690 
	C105.980957,109.806885 105.934006,109.552193 105.801636,108.918762 
	C108.597221,104.061302 111.478218,99.582588 114.702553,95.052933 
	C112.224960,99.893936 109.404037,104.785873 106.305511,109.869690 
z"/>
<path fill="#59678C" opacity="1.000000" stroke="none" 
	d="
M43.316486,206.083435 
	C45.789516,201.542709 48.567238,196.815842 51.688770,192.040039 
	C49.228783,196.626495 46.424980,201.261887 43.316486,206.083435 
z"/>
<path fill="#59678C" opacity="1.000000" stroke="none" 
	d="
M116.384575,172.944916 
	C118.716202,168.624466 121.355858,164.161819 124.341927,159.699722 
	C122.023102,164.067764 119.357857,168.435242 116.384575,172.944916 
z"/>
<path fill="#646D88" opacity="1.000000" stroke="none" 
	d="
M85.383560,297.017212 
	C89.543480,295.265167 93.976685,293.764954 98.760582,292.172943 
	C96.167503,297.807007 90.989189,297.737793 85.383560,297.017212 
z"/>
<path fill="#142146" opacity="1.000000" stroke="none" 
	d="
M358.812408,113.014023 
	C350.263824,113.360901 341.544281,113.300583 332.357727,113.129417 
	C335.413757,112.678520 338.935364,112.077591 342.460022,112.059059 
	C347.852722,112.030701 353.247528,112.404022 358.812408,113.014023 
z"/>
<path fill="#374362" opacity="1.000000" stroke="none" 
	d="
M97.914230,267.705688 
	C89.824142,268.208740 81.418541,268.404968 72.553833,268.693970 
	C72.968361,268.199524 73.841133,267.105957 74.715752,267.104492 
	C82.343216,267.091614 89.971016,267.274292 97.914230,267.705688 
z"/>
<path fill="#52618A" opacity="1.000000" stroke="none" 
	d="
M73.454117,159.070587 
	C75.492622,155.296036 77.874931,151.486786 80.601280,147.562469 
	C78.562859,151.310242 76.180389,155.173050 73.454117,159.070587 
z"/>
<path fill="#515F88" opacity="1.000000" stroke="none" 
	d="
M161.822052,101.520149 
	C163.325684,99.129448 164.829330,96.738754 166.882172,94.158981 
	C167.639999,93.989479 167.848648,94.009056 168.057281,94.028625 
	C166.230865,96.917648 164.404449,99.806671 162.254776,102.496124 
	C161.895035,102.037758 161.858536,101.778954 161.822052,101.520149 
z"/>
<path fill="#59678C" opacity="1.000000" stroke="none" 
	d="
M84.387207,142.165085 
	C85.476448,139.857239 86.916740,137.478180 88.699066,135.048676 
	C87.606827,137.363434 86.172546,139.728653 84.387207,142.165085 
z"/>
<path fill="#59678C" opacity="1.000000" stroke="none" 
	d="
M161.552292,101.747375 
	C161.858536,101.778954 161.895035,102.037758 161.977051,102.686356 
	C160.588425,105.084290 159.154266,107.092438 157.371902,109.167877 
	C158.443314,106.814987 159.862930,104.394791 161.552292,101.747375 
z"/>
<path fill="#838486" opacity="1.000000" stroke="none" 
	d="
M140.866089,157.873901 
	C140.359421,159.144989 139.534668,160.585464 138.354019,162.052765 
	C138.848083,160.734177 139.698029,159.388748 140.866089,157.873901 
z"/>
<path fill="#838486" opacity="1.000000" stroke="none" 
	d="
M127.871841,177.869354 
	C127.364616,179.143219 126.538734,180.587173 125.356575,182.056274 
	C125.851265,180.734100 126.702225,179.386780 127.871841,177.869354 
z"/>
<path fill="#526088" opacity="1.000000" stroke="none" 
	d="
M169.263031,91.328857 
	C169.387024,90.417168 169.854584,89.363548 170.640533,88.138062 
	C170.508133,89.039772 170.057358,90.113350 169.263031,91.328857 
z"/>
<path fill="#838486" opacity="1.000000" stroke="none" 
	d="
M148.772583,145.121490 
	C148.667419,146.006393 148.246628,147.016418 147.505768,148.178589 
	C147.609451,147.302704 148.033203,146.274658 148.772583,145.121490 
z"/>
<path fill="#52618A" opacity="1.000000" stroke="none" 
	d="
M154.300781,114.319717 
	C154.348099,113.557289 154.766251,112.636787 155.561386,111.581589 
	C155.516129,112.351799 155.093872,113.256721 154.300781,114.319717 
z"/>
<path fill="#838486" opacity="1.000000" stroke="none" 
	d="
M115.773697,196.107117 
	C115.627251,197.000320 115.174713,198.003693 114.367142,199.046265 
	C114.497269,198.129395 114.982430,197.173325 115.773697,196.107117 
z"/>
<path fill="#838486" opacity="1.000000" stroke="none" 
	d="
M122.774681,185.127563 
	C122.673134,186.023926 122.252617,187.047440 121.511574,188.233795 
	C121.612602,187.349335 122.034157,186.302032 122.774681,185.127563 
z"/>
<path fill="#838486" opacity="1.000000" stroke="none" 
	d="
M124.779160,182.108002 
	C124.630821,183.011734 124.177406,184.029022 123.367081,185.067535 
	C123.498146,184.133011 123.986122,183.177292 124.779160,182.108002 
z"/>
<path fill="#52618A" opacity="1.000000" stroke="none" 
	d="
M81.301529,147.319839 
	C81.349548,146.558182 81.768234,145.638306 82.562958,144.582916 
	C82.516731,145.352158 82.094467,146.256882 81.301529,147.319839 
z"/>
<path fill="#838486" opacity="1.000000" stroke="none" 
	d="
M135.774017,165.125366 
	C135.670349,166.016602 135.248947,167.033920 134.508301,168.210968 
	C134.611465,167.330948 135.033875,166.291214 135.774017,165.125366 
z"/>
<path fill="#838486" opacity="1.000000" stroke="none" 
	d="
M137.777405,162.106873 
	C137.628769,163.009644 137.175446,164.026749 136.365326,165.065552 
	C136.496597,164.131897 136.984650,163.176544 137.777405,162.106873 
z"/>
<path fill="#838486" opacity="1.000000" stroke="none" 
	d="
M150.777435,142.106735 
	C150.626770,143.006424 150.171463,144.020248 149.360535,145.059204 
	C149.494202,144.129837 149.983505,143.175354 150.777435,142.106735 
z"/>
<path fill="#838486" opacity="1.000000" stroke="none" 
	d="
M152.587769,140.077225 
	C152.458115,140.666367 152.055771,141.367706 151.326874,142.074341 
	C151.438599,141.449570 151.876831,140.819489 152.587769,140.077225 
z"/>
<path fill="#526088" opacity="1.000000" stroke="none" 
	d="
M168.308105,93.767090 
	C167.848648,94.009056 167.639999,93.989479 167.119110,93.934563 
	C167.291458,93.134926 167.776031,92.370628 168.596893,91.524902 
	C168.808426,92.130836 168.683670,92.818192 168.308105,93.767090 
z"/>
<path fill="#838486" opacity="1.000000" stroke="none" 
	d="
M133.761475,168.957550 
	C133.662064,169.583511 133.243271,170.362869 132.510437,171.304230 
	C132.611633,170.681152 133.026855,169.896057 133.761475,168.957550 
z"/>
<path fill="#838486" opacity="1.000000" stroke="none" 
	d="
M120.766144,188.954193 
	C120.669075,189.587952 120.249504,190.378342 119.515579,191.336151 
	C119.615356,190.705978 120.029503,189.908401 120.766144,188.954193 
z"/>
<path fill="#838486" opacity="1.000000" stroke="none" 
	d="
M146.749390,148.966827 
	C146.649445,149.584518 146.233612,150.350952 145.506042,151.273682 
	C145.607361,150.658524 146.020432,149.887054 146.749390,148.966827 
z"/>
<path fill="#556389" opacity="1.000000" stroke="none" 
	d="
M72.262329,160.903961 
	C72.162277,160.447845 72.371956,159.917511 72.845505,159.233490 
	C72.930275,159.663116 72.751167,160.246429 72.262329,160.903961 
z"/>
<path fill="#848587" opacity="1.000000" stroke="none" 
	d="
M363.243439,278.893738 
	C363.145844,278.454163 363.362366,277.916626 363.779266,277.166504 
	C363.838959,277.567871 363.698242,278.181793 363.243439,278.893738 
z"/>
<path fill="#59678C" opacity="1.000000" stroke="none" 
	d="
M115.596275,173.875854 
	C115.536705,173.673248 115.654068,173.376022 115.933525,173.073822 
	C116.089737,173.352249 115.982262,173.589691 115.596275,173.875854 
z"/>
<path fill="#52618A" opacity="1.000000" stroke="none" 
	d="
M83.165268,144.344269 
	C82.927605,144.161377 82.925484,143.847534 83.220825,143.167587 
	C83.479134,143.272095 83.439964,143.742722 83.165268,144.344269 
z"/>
<path fill="#838486" opacity="1.000000" stroke="none" 
	d="
M116.894592,194.870636 
	C117.003616,195.122711 116.835793,195.527374 116.335632,196.002533 
	C116.208099,195.723099 116.412918,195.373169 116.894592,194.870636 
z"/>
<path fill="#52618A" opacity="1.000000" stroke="none" 
	d="
M156.165207,111.343170 
	C155.925201,111.160652 155.921463,110.846260 156.213135,110.163025 
	C156.472839,110.266548 156.437149,110.738922 156.165207,111.343170 
z"/>
<path fill="#838486" opacity="1.000000" stroke="none" 
	d="
M143.749573,153.111328 
	C143.930237,153.354187 143.807587,153.735428 143.443970,154.319611 
	C143.284088,154.098267 143.365173,153.673981 143.749573,153.111328 
z"/>
<path fill="#838486" opacity="1.000000" stroke="none" 
	d="
M144.830841,151.918610 
	C144.931534,152.158508 144.761765,152.530075 144.284470,152.977478 
	C144.171432,152.718994 144.365921,152.384644 144.830841,151.918610 
z"/>
<path fill="#505E86" opacity="1.000000" stroke="none" 
	d="
M115.205032,94.976646 
	C115.098633,94.740944 115.304901,94.544319 115.788536,94.331215 
	C115.902855,94.539742 115.720116,94.773407 115.205032,94.976646 
z"/>
<path fill="#646D88" opacity="1.000000" stroke="none" 
	d="
M99.346863,292.037292 
	C99.262901,291.814484 99.439171,291.536102 99.853554,291.170715 
	C99.930145,291.383057 99.768623,291.682404 99.346863,292.037292 
z"/>
<path fill="#838486" opacity="1.000000" stroke="none" 
	d="
M141.758667,156.128876 
	C141.954773,156.383972 141.841965,156.782242 141.467529,157.378281 
	C141.287170,157.141388 141.368454,156.706726 141.758667,156.128876 
z"/>
<path fill="#838486" opacity="1.000000" stroke="none" 
	d="
M142.874939,154.884705 
	C142.979843,155.131165 142.809494,155.523773 142.315948,155.991302 
	C142.195053,155.721115 142.397369,155.376007 142.874939,154.884705 
z"/>
<path fill="#838486" opacity="1.000000" stroke="none" 
	d="
M113.774673,199.151886 
	C113.998283,199.422958 113.910622,199.851181 113.530983,200.465271 
	C113.313812,200.203781 113.388611,199.756424 113.774673,199.151886 
z"/>
<path fill="#838486" opacity="1.000000" stroke="none" 
	d="
M117.755447,193.123322 
	C117.946800,193.374405 117.830971,193.767776 117.460251,194.361191 
	C117.286339,194.129364 117.367310,193.697495 117.755447,193.123322 
z"/>
<path fill="#838486" opacity="1.000000" stroke="none" 
	d="
M118.854858,191.901398 
	C118.958412,192.145004 118.788948,192.528259 118.303368,192.986847 
	C118.185448,192.721802 118.383644,192.381424 118.854858,191.901398 
z"/>
<path fill="#59678C" opacity="1.000000" stroke="none" 
	d="
M89.216385,134.981598 
	C89.088188,134.725876 89.292877,134.519470 89.784576,134.292694 
	C89.938904,134.523956 89.764793,134.776825 89.216385,134.981598 
z"/>
<path fill="#59678C" opacity="1.000000" stroke="none" 
	d="
M52.213837,191.975876 
	C52.075130,191.710754 52.279278,191.501678 52.780876,191.278473 
	C52.941067,191.513626 52.767189,191.769485 52.213837,191.975876 
z"/>
<path fill="#838486" opacity="1.000000" stroke="none" 
	d="
M131.844635,171.908966 
	C131.947220,172.150696 131.778030,172.528961 131.296143,172.983246 
	C131.179916,172.721344 131.376373,172.383408 131.844635,171.908966 
z"/>
<path fill="#5A6992" opacity="1.000000" stroke="none" 
	d="
M112.229599,178.974625 
	C112.086205,178.706726 112.292145,178.489288 112.792740,178.242279 
	C112.972488,178.484406 112.802994,178.755188 112.229599,178.974625 
z"/>
<path fill="#838486" opacity="1.000000" stroke="none" 
	d="
M128.761810,176.134048 
	C128.962463,176.392899 128.852722,176.795670 128.474884,177.393738 
	C128.288330,177.152023 128.369873,176.714996 128.761810,176.134048 
z"/>
<path fill="#838486" opacity="1.000000" stroke="none" 
	d="
M129.885956,174.877136 
	C129.992462,175.126236 129.822601,175.524811 129.325439,175.996597 
	C129.201950,175.722076 129.405777,175.374329 129.885956,174.877136 
z"/>
<path fill="#838486" opacity="1.000000" stroke="none" 
	d="
M130.753296,173.119461 
	C130.941360,173.367783 130.823547,173.757721 130.455399,174.348969 
	C130.285843,174.120560 130.366623,173.690811 130.753296,173.119461 
z"/>
</svg>