<?xml version="1.0" encoding="UTF-8"?>
<svg version="1.1" xmlns="http://www.w3.org/2000/svg" width="512" height="512">
<path d="M0 0 C3.98990232 3.35514514 6.46880009 6.41716539 7.24679399 11.66097486 C7.24451566 13.50755483 7.24451566 13.50755483 7.24219131 15.39143944 C7.24680669 16.08384222 7.25142207 16.776245 7.25617731 17.48962969 C7.2667633 19.80926161 7.24882401 22.12778233 7.23101807 24.44735718 C7.23276252 26.1272071 7.23626511 27.80705596 7.24137473 29.48689902 C7.25032336 34.10252126 7.23431263 38.71777258 7.21426249 43.33334756 C7.19700028 48.31079361 7.20283332 53.28821848 7.20587158 58.26568604 C7.20796972 66.88931617 7.19541201 75.51282532 7.17292023 84.13642502 C7.14042202 96.60470644 7.12999543 109.07292932 7.12496826 121.54124852 C7.11621219 141.76988244 7.08958813 161.99845188 7.05175781 182.22705078 C7.01504581 201.87808916 6.98673007 221.52911003 6.96972656 241.18017578 C6.96867567 242.39131964 6.96762477 243.60246351 6.96654204 244.8503087 C6.96132191 250.92621771 6.95626707 257.00212685 6.95129442 263.07803607 C6.90982268 313.48956862 6.83936573 363.90103117 6.75 414.3125 C7.60680536 414.31098112 8.46361072 414.30946224 9.34637988 414.30789733 C60.10077161 414.21843132 110.85515499 414.1497772 161.60960976 414.10823868 C167.70051471 414.10323571 173.79141951 414.09805844 179.88232422 414.09277344 C181.70124782 414.09119957 181.70124782 414.09119957 183.55691735 414.08959392 C203.20466267 414.07217738 222.85236128 414.04063281 242.50007887 414.00388882 C262.65274608 413.96651416 282.80538879 413.94427151 302.95808923 413.93614602 C315.39853375 413.93065104 327.83884629 413.91328078 340.27925019 413.88083413 C348.80415719 413.85972915 357.32899572 413.85329084 365.85392697 413.85849449 C370.77615856 413.86106252 375.69815912 413.85706019 380.62034988 413.8356781 C385.12471634 413.81625349 389.62869577 413.81520332 394.13307981 413.82890442 C395.76440831 413.83059848 397.39576067 413.82548961 399.02704199 413.81296727 C401.24218985 413.79694879 403.45593484 413.80554323 405.67106056 413.82030869 C406.90211387 413.8187898 408.13316718 413.81727092 409.40152514 413.81570601 C414.6166721 414.58944742 417.6813876 417.0705991 421.0625 421 C423.88805329 426.54645647 424.4177559 431.08664701 422.625 437.0625 C419.94159715 441.7137316 417.70119442 444.63110471 412.54051775 446.43331403 C408.6688981 447.33131106 405.32098806 447.56426414 401.35171604 447.56697559 C400.27952041 447.57178531 400.27952041 447.57178531 399.18566427 447.57669219 C396.79610271 447.58497803 394.40679273 447.57907294 392.01722717 447.57319641 C390.2844695 447.57621774 388.55171316 447.58010712 386.81895918 447.58478898 C382.06153554 447.59508005 377.30418718 447.59288433 372.54675734 447.58860838 C367.41442845 447.5861432 362.28211777 447.59515271 357.14979553 447.60264587 C347.09688691 447.61540038 337.044005 447.61718565 326.99108965 447.61484561 C318.82103161 447.61306324 310.65098168 447.61481036 302.48092461 447.61907005 C300.73733434 447.61996284 300.73733434 447.61996284 298.95852004 447.62087366 C296.59719662 447.62208539 294.23587321 447.62329953 291.8745498 447.62451603 C269.72640679 447.63539434 247.578279 447.63322762 225.43013512 447.62713119 C205.16340505 447.621961 184.89672302 447.63321965 164.63000245 447.65222941 C143.82394933 447.67159558 123.01791897 447.679866 102.21185678 447.67610615 C90.52927884 447.67419235 78.84674181 447.67669914 67.16417122 447.69082069 C57.21946119 447.70271985 47.27481724 447.70415579 37.33010633 447.69203053 C32.25573092 447.68613174 27.1814765 447.68507006 22.10710907 447.69703293 C17.46171377 447.7078573 12.81654096 447.70482949 8.17115622 447.69077124 C6.49088442 447.68811482 4.81059538 447.69052042 3.13034046 447.69850711 C-15.0116805 447.7787537 -15.0116805 447.7787537 -21.30859375 442.62890625 C-21.76363281 442.05011719 -22.21867187 441.47132813 -22.6875 440.875 C-23.16058594 440.29878906 -23.63367187 439.72257812 -24.12109375 439.12890625 C-26.63524412 435.083647 -26.37687558 430.91152993 -26.38142776 426.24933147 C-26.3834804 425.53431958 -26.38553303 424.81930768 -26.38764787 424.08262876 C-26.39332554 421.67434662 -26.39185967 419.26612153 -26.39044189 416.85783386 C-26.39302508 415.11870407 -26.39603811 413.37957486 -26.3994453 411.64044648 C-26.40752385 406.85153106 -26.40930534 402.06263061 -26.41004276 397.27370918 C-26.41189181 392.11272076 -26.41943835 386.95174014 -26.42617798 381.79075623 C-26.43976745 370.50162798 -26.44578685 359.21250328 -26.45018864 347.92336822 C-26.45294977 340.87716264 -26.45718686 333.83095844 -26.46169281 326.7847538 C-26.4738858 307.28342239 -26.48418537 287.78209209 -26.4875679 268.28075695 C-26.48778747 267.03232642 -26.48800703 265.78389589 -26.48823325 264.49763413 C-26.48845153 263.2461867 -26.48866981 261.99473926 -26.4888947 260.70536917 C-26.48933817 258.16938349 -26.48978473 255.6333978 -26.49023438 253.09741211 C-26.4904558 251.83947085 -26.49067723 250.5815296 -26.49090537 249.28546891 C-26.49485474 228.89501123 -26.51231286 208.50458925 -26.5355939 188.11414536 C-26.5592924 167.18954388 -26.57176905 146.26496033 -26.57293582 125.3403452 C-26.57385337 113.58788662 -26.579626 101.83547458 -26.59775543 90.08302879 C-26.61313609 80.07710373 -26.61828889 70.07123959 -26.61001733 60.06530496 C-26.60610374 54.95866711 -26.607075 49.85215201 -26.62107468 44.74552917 C-26.63377091 40.07169904 -26.63265382 35.39808442 -26.62048396 30.72425476 C-26.61851954 29.03246889 -26.62163963 27.34066797 -26.63032833 25.64890327 C-26.64138836 23.35007071 -26.63395579 21.05200317 -26.6219368 18.75319195 C-26.62253389 17.47608245 -26.62313097 16.19897294 -26.62374616 14.88316315 C-26.06559441 9.55074207 -24.38423225 5.73029031 -21 1.5 C-14.43903931 -3.718946 -7.18654023 -3.73147281 0 0 Z " fill="#EEEEEE" transform="translate(57.25,33.6875)"/>
<path d="M0 0 C3.3261981 2.54308835 5.26793449 4.85023648 6.171875 8.91796875 C6.91954765 15.7755288 6.10086558 20.14923767 2.171875 25.91796875 C-0.08602843 28.58521111 -2.53305013 31.03686298 -5.01287842 33.49713135 C-6.09984666 34.59323624 -6.09984666 34.59323624 -7.20877385 35.71148467 C-9.63046915 38.1497833 -12.06270752 40.5772761 -14.49511719 43.00488281 C-16.2370074 44.75411475 -17.97827399 46.50396787 -19.71896362 48.25439453 C-23.95297461 52.50831114 -28.19404116 56.7550695 -32.43890473 60.99814776 C-35.88975731 64.4476908 -39.33803661 67.89978587 -42.78452301 71.3536911 C-43.77867528 72.34994264 -44.77282839 73.34619334 -45.76698232 74.34244323 C-46.26184838 74.83835282 -46.75671444 75.3342624 -47.26657644 75.84519956 C-56.61683314 85.21434017 -65.97702539 94.57350601 -75.34014025 103.92979404 C-83.9005754 112.48465193 -92.44772793 121.05264283 -100.98880729 129.62682155 C-109.7664605 138.4382256 -118.55337682 147.24029489 -127.35023236 156.03252959 C-132.28584323 160.96589759 -137.21765597 165.90292535 -142.13967133 170.84986115 C-146.76721041 175.50063063 -151.40764347 180.13824665 -156.05698013 184.76724243 C-157.76085638 186.46770366 -159.46047809 188.17244032 -161.15549088 189.88173676 C-163.47075232 192.21515676 -165.80090909 194.53261939 -168.13543701 196.84674072 C-168.8019946 197.52581616 -169.46855218 198.20489159 -170.15530849 198.90454507 C-174.69104484 203.35575831 -179.26690643 206.79187371 -185.91990161 206.97579598 C-197.39123244 205.97505719 -204.86104532 195.3420948 -211.859375 187.171875 C-214.41791036 184.24275813 -217.05861366 181.39438462 -219.703125 178.54296875 C-224.02585274 173.8787796 -228.30629399 169.18102433 -232.55078125 164.4453125 C-235.12622275 161.58714672 -237.72498264 158.75086614 -240.328125 155.91796875 C-243.68105617 152.26869704 -247.01810857 148.60627277 -250.328125 144.91796875 C-251.04226562 144.12648438 -251.75640625 143.335 -252.4921875 142.51953125 C-254.24755882 140.56455249 -255.98980119 138.60027269 -257.7265625 136.62890625 C-258.71849535 135.51669992 -259.71067941 134.40471758 -260.703125 133.29296875 C-261.16783203 132.75929688 -261.63253906 132.225625 -262.11132812 131.67578125 C-263.2889632 130.36538205 -264.55342619 129.1341568 -265.828125 127.91796875 C-269.34373564 127.91796875 -269.62654539 128.3273339 -272.05078125 130.6640625 C-272.66646973 131.24945801 -273.2821582 131.83485352 -273.91650391 132.43798828 C-274.56796387 133.07075684 -275.21942383 133.70352539 -275.890625 134.35546875 C-277.25326373 135.65432024 -278.61654502 136.95249795 -279.98046875 138.25 C-280.64288574 138.88373535 -281.30530273 139.5174707 -281.98779297 140.17041016 C-284.27115116 142.33866141 -286.60252468 144.44795265 -288.953125 146.54296875 C-292.78068795 149.96361471 -296.56167841 153.4304375 -300.328125 156.91796875 C-304.13792498 160.44498856 -307.9615009 163.95307183 -311.828125 167.41796875 C-316.77402936 171.85167589 -321.65099154 176.35740295 -326.52734375 180.8671875 C-330.66540174 184.69394874 -334.81252648 188.51048964 -338.98046875 192.3046875 C-340.84555456 194.0162683 -342.69281901 195.7475228 -344.51953125 197.5 C-354.3558355 206.79568295 -354.3558355 206.79568295 -361.92578125 206.96484375 C-367.94481593 206.46982034 -371.27415636 204.36598498 -375.578125 200.35546875 C-378.73845937 196.31224732 -379.20222907 191.93719837 -378.828125 186.91796875 C-376.45403286 177.88322923 -368.0567819 171.91317468 -361.28515625 166.08984375 C-357.94669936 163.13883893 -354.70319091 160.09068497 -351.453125 157.04296875 C-346.46463185 152.36721269 -341.4411358 147.7408592 -336.34375 143.18359375 C-332.79543702 139.98790815 -329.29234774 136.7442161 -325.78686523 133.50170898 C-320.64321923 128.74404375 -315.4797056 124.00837077 -310.31201172 119.27685547 C-308.317344 117.45021504 -306.32357793 115.62259263 -304.33007812 113.79467773 C-303.33045641 112.878412 -302.33045752 111.96255758 -301.33007812 111.04711914 C-298.80928683 108.73954341 -296.29520231 106.42535279 -293.79296875 104.09765625 C-274.07495052 85.80029935 -274.07495052 85.80029935 -266.640625 85.60546875 C-265.25810547 85.54939453 -265.25810547 85.54939453 -263.84765625 85.4921875 C-257.03196292 86.45326198 -252.84300707 90.54667654 -248.453125 95.54296875 C-247.98326172 96.07148438 -247.51339844 96.6 -247.02929688 97.14453125 C-246.07327928 98.22085959 -245.12106769 99.30058156 -244.17285156 100.38378906 C-242.24644545 102.5815988 -240.28668314 104.74881296 -238.328125 106.91796875 C-237.60625 107.72234375 -236.884375 108.52671875 -236.140625 109.35546875 C-233.55197497 112.22397284 -230.94227354 115.07273525 -228.328125 117.91796875 C-224.23646393 122.37132362 -220.17989554 126.85456729 -216.140625 131.35546875 C-213.55197448 134.22397338 -210.94221409 137.07268021 -208.328125 139.91796875 C-200.74359347 148.17609614 -193.26592907 156.52763936 -185.828125 164.91796875 C-180.98618218 160.88556388 -176.43870253 156.66081469 -172.01065063 152.18037415 C-171.36173493 151.52807947 -170.71281922 150.87578479 -170.0442394 150.20372361 C-167.88727437 148.03443341 -165.73396081 145.86155494 -163.58056641 143.6887207 C-162.02791734 142.12595904 -160.47499785 140.563466 -158.92182922 139.0012207 C-155.5856929 135.64502441 -152.25089128 132.28750943 -148.91695023 128.92913246 C-143.64284565 123.61756036 -138.36218244 118.31254239 -133.07992554 113.00907898 C-132.18737521 112.11289126 -131.29482488 111.21670354 -130.37522757 110.29335862 C-128.55065893 108.46138477 -126.72607389 106.62942725 -124.90147281 104.79748571 C-120.22120205 100.09820203 -115.54138666 95.39846538 -110.86230469 90.69799805 C-110.39311624 90.22667024 -109.9239278 89.75534243 -109.44052152 89.26973196 C-101.8320908 81.62603107 -94.232855 73.97324551 -86.63649173 66.31755421 C-78.82422856 58.44479769 -71.00027908 50.58377056 -63.16646898 42.73245209 C-58.7735472 38.328855 -54.3862609 33.9199512 -50.01189041 29.49791908 C-45.89940087 25.34078173 -41.77311514 21.1978574 -37.63586998 17.06536102 C-36.12176906 15.5480163 -34.61280275 14.02552755 -33.10945702 12.49752617 C-31.05315827 10.40903989 -28.97904111 8.33998747 -26.89956665 6.27461243 C-26.31189628 5.66878289 -25.72422591 5.06295335 -25.11874735 4.43876535 C-17.98039181 -2.55707036 -9.0389993 -5.350006 0 0 Z " fill="#E9E9E9" transform="translate(473.828125,138.08203125)"/>
</svg>
