<?xml version="1.0" encoding="UTF-8"?>
<svg version="1.1" xmlns="http://www.w3.org/2000/svg" width="512" height="512">
<path d="M0 0 C1.3365287 -0.01469078 1.3365287 -0.01469078 2.70005798 -0.02967834 C22.60828118 -0.20334589 41.90456474 -0.03544421 61.4453125 4.23828125 C62.92451172 4.55974121 62.92451172 4.55974121 64.43359375 4.88769531 C113.29447026 15.88619536 161.14969796 42.34158506 193.4453125 81.23828125 C194.22777344 82.1096875 195.01023437 82.98109375 195.81640625 83.87890625 C224.76774894 116.38002403 243.92344787 159.36421165 250.4453125 202.23828125 C250.62046387 203.358396 250.79561523 204.47851074 250.97607422 205.63256836 C252.5800588 216.94273439 252.84456538 228.13833039 252.8203125 239.55078125 C252.81949677 240.99969254 252.81949677 240.99969254 252.81866455 242.47787476 C252.67723335 297.28359543 233.91294268 351.1405859 198.4453125 393.23828125 C198.00074707 393.77163086 197.55618164 394.30498047 197.09814453 394.85449219 C188.22536736 405.48522354 179.07675597 415.36819695 168.21484375 424.02734375 C166.40012249 425.47604929 164.60476024 426.94942113 162.83203125 428.44921875 C121.52207816 463.33317913 66.69507132 480.72710773 13.1328125 480.61328125 C12.16687164 480.61273743 11.20093079 480.6121936 10.20571899 480.6116333 C-5.69146444 480.57060916 -20.9742443 479.64585488 -36.5546875 476.23828125 C-37.54082031 476.02397461 -38.52695313 475.80966797 -39.54296875 475.58886719 C-80.68601851 466.32763679 -118.66455293 447.01341561 -149.5546875 418.23828125 C-150.94613416 417.02489906 -152.34177389 415.81630322 -153.7421875 414.61328125 C-160.23579506 408.92488103 -165.82997583 402.84849748 -171.23828125 396.11328125 C-172.72964128 394.26228465 -174.24130496 392.42737276 -175.77734375 390.61328125 C-186.48593264 377.92162035 -194.84788293 363.9027082 -202.5546875 349.23828125 C-202.90241211 348.58762695 -203.25013672 347.93697266 -203.60839844 347.26660156 C-214.77726192 326.11658788 -221.86063665 301.78641992 -225.5546875 278.23828125 C-225.73725098 277.08271729 -225.91981445 275.92715332 -226.10791016 274.73657227 C-227.70824137 263.46656388 -227.95385383 252.29750635 -227.9296875 240.92578125 C-227.92914368 239.95984039 -227.92859985 238.99389954 -227.92803955 237.99868774 C-227.88701541 222.10150431 -226.96226113 206.81872445 -223.5546875 191.23828125 C-223.34038086 190.25214844 -223.12607422 189.26601562 -222.90527344 188.25 C-213.64404304 147.10695024 -194.32982186 109.12841582 -165.5546875 78.23828125 C-164.34130531 76.84683459 -163.13270947 75.45119486 -161.9296875 74.05078125 C-123.16385022 29.67058133 -58.73818865 0.53610464 0 0 Z " fill="#1B4BD1" transform="translate(243.5546875,15.76171875)"/>
<path d="M0 0 C0.84691406 0.26683594 1.69382812 0.53367188 2.56640625 0.80859375 C18.79138399 6.52161408 29.60968281 19.045884 37 34 C37.70991866 35.98505918 38.39252885 37.98123225 39 40 C42.30331929 38.82785445 45.23136792 37.3176416 48.25 35.5625 C60.96242063 28.39193329 74.59879927 27.33321254 88.66015625 30.89453125 C103.50251435 35.80726498 114.3936465 45.03943058 121.4765625 58.88671875 C126.59186548 70.32884383 127.47613142 80.63241242 126 93 C126.82242187 93.25652344 127.64484375 93.51304687 128.4921875 93.77734375 C139.5088711 97.55558281 147.04618949 102.68061115 152.5625 113.125 C154.53460219 117.46918003 155.78358004 121.23876088 156 126 C156.721875 126.2475 157.44375 126.495 158.1875 126.75 C165.32998974 129.92443989 168.46217171 135.29380017 172 142 C174.24144216 148.72432649 174.13260847 157.28695707 171.4375 163.875 C166.91449462 172.35366515 161.01624105 177.6225335 152 181 C147.12327215 182.30895983 142.25325792 182.14514052 137.24320984 182.14044189 C136.25383999 182.14341302 135.26447014 182.14638414 134.24511939 182.1494453 C130.92601831 182.15812468 127.60695333 182.15963994 124.2878418 182.16113281 C121.90915347 182.16576171 119.53046589 182.17078647 117.15177917 182.17617798 C110.68426637 182.18930151 104.21676047 182.19578455 97.74923682 182.20018864 C93.70489671 182.20295538 89.66055898 182.20719369 85.61622047 182.21169281 C74.40327829 182.22388684 63.19033801 182.23418372 51.97738934 182.2375679 C50.90129452 182.23789725 50.90129452 182.23789725 49.80346041 182.23823325 C49.08440095 182.23845153 48.36534149 182.23866981 47.62449235 182.2388947 C46.16754893 182.23933816 44.71060552 182.23978472 43.25366211 182.24023438 C42.16963381 182.24056652 42.16963381 182.24056652 41.06370596 182.24090537 C29.37685759 182.24484586 17.69007186 182.26227633 6.00324764 182.2855939 C-6.01580228 182.30937909 -18.03482089 182.32177311 -30.0538947 182.32293582 C-36.79374457 182.32384892 -43.53351296 182.32950799 -50.27334023 182.34775543 C-56.62220405 182.36431019 -62.970914 182.36635575 -69.31979179 182.35761642 C-71.63999979 182.35684987 -73.9602163 182.36113796 -76.28040314 182.37107468 C-100.77117212 182.46974124 -124.34027221 179.47922926 -143.140625 161.921875 C-159.74925445 144.7549723 -167.56963823 124.20331511 -167.21484375 100.421875 C-166.52635257 80.66517165 -157.07379172 62.56801483 -143 49 C-126.3997051 34.63980171 -108.97356787 28.46118488 -87.375 29.3125 C-86.24803711 29.40281494 -85.12107422 29.49312988 -83.95996094 29.58618164 C-80.75662798 29.7361423 -78.11518921 29.77336716 -75 29 C-72.20794853 26.368261 -70.67643445 23.41706496 -69 20 C-60.6839683 8.58307513 -48.59565193 1.40397843 -35 -2 C-34.23945313 -2.19078125 -33.47890625 -2.3815625 -32.6953125 -2.578125 C-21.81101013 -4.28175494 -10.40818404 -3.53052939 0 0 Z " fill="#FFFFFF" transform="translate(262,205)"/>
<path d="M0 0 C10.59990556 7.99840435 20.18045383 19.72964724 22.3125 33.18359375 C21.18328125 33.36921875 21.18328125 33.36921875 20.03125 33.55859375 C2.08918918 37.04248906 -14.35642395 46.78545952 -25.6875 61.18359375 C-26.3475 62.17359375 -27.0075 63.16359375 -27.6875 64.18359375 C-30.45043636 64.49797601 -33.04364599 64.64352765 -35.8125 64.68359375 C-49.63417811 65.18735773 -61.91610297 67.63229318 -74.6875 73.18359375 C-76.07582031 73.78300781 -76.07582031 73.78300781 -77.4921875 74.39453125 C-79.56654536 75.30569779 -81.63122009 76.23249787 -83.6875 77.18359375 C-91.44816125 63.31869697 -93.94709662 48.61613812 -90.625 32.99609375 C-86.03602389 17.26551054 -75.43345167 3.77497642 -61.1328125 -4.25 C-40.70297693 -14.22805012 -18.85670037 -12.74471755 0 0 Z " fill="#FFFFFF" transform="translate(207.6875,155.81640625)"/>
<path d="M0 0 C3.0596407 1.25523721 3.8183852 2.11114322 5.4375 5 C5.7541698 7.8439526 5.9055088 10.46400855 5.90625 13.30859375 C5.91386353 14.11232925 5.92147705 14.91606476 5.92932129 15.74415588 C5.94010867 17.44114074 5.94298091 19.13819191 5.93847656 20.83520508 C5.9375044 23.42577287 5.97913215 26.01337552 6.0234375 28.60351562 C6.02864506 30.25520218 6.03133268 31.90689899 6.03125 33.55859375 C6.0558429 34.71505653 6.0558429 34.71505653 6.08093262 35.8948822 C6.02757544 40.06624146 5.62018512 41.78199786 2.90039062 45.02758789 C2.08763672 45.67848389 1.27488281 46.32937988 0.4375 47 C-1.58295442 46.39816251 -3.58361039 45.72693904 -5.5625 45 C-7.21019027 41.70461946 -6.76853431 38.03824938 -6.80078125 34.4140625 C-6.808853 33.56073334 -6.81692474 32.70740417 -6.82524109 31.82821655 C-6.83908148 30.02091504 -6.84980384 28.2135874 -6.85766602 26.40625 C-6.87488952 23.64272587 -6.91877592 20.88039484 -6.96289062 18.1171875 C-6.97301666 16.36198797 -6.98153304 14.60677827 -6.98828125 12.8515625 C-7.00578934 12.02540436 -7.02329742 11.19924622 -7.04133606 10.34805298 C-7.02682708 6.50924114 -7.01354997 4.61701513 -4.69604492 1.44677734 C-2.5625 0 -2.5625 0 0 0 Z " fill="#FFFFFF" transform="translate(174.5625,93)"/>
<path d="M0 0 C1.13566406 0.65677734 2.27132812 1.31355469 3.44140625 1.99023438 C4.0245459 2.33127197 4.60768555 2.67230957 5.20849609 3.02368164 C6.99091293 4.06566115 8.77817982 5.09888837 10.56640625 6.13085938 C23.32231025 13.53915174 23.32231025 13.53915174 24.8046875 16.50390625 C24.89953261 19.72863985 23.95008558 21.21005686 21.8671875 23.62890625 C16.03226929 24.58082644 12.14991148 21.9807374 7.3046875 19.12890625 C6.51835938 18.67837891 5.73203125 18.22785156 4.921875 17.76367188 C2.55997718 16.4022202 0.21144548 15.0204795 -2.1328125 13.62890625 C-3.15737549 13.02175781 -3.15737549 13.02175781 -4.20263672 12.40234375 C-14.49663077 6.26508798 -14.49663077 6.26508798 -17.1328125 3.62890625 C-17.0078125 0.12890625 -17.0078125 0.12890625 -16.1328125 -3.37109375 C-11.35236056 -7.79743814 -4.6427812 -2.69313194 0 0 Z " fill="#FFFFFF" transform="translate(95.1328125,150.37109375)"/>
<path d="M0 0 C2.4375 1.25 2.4375 1.25 4.4375 4.25 C4.40625 6.70703125 4.40625 6.70703125 3.4375 9.25 C1.09375 11.13671875 1.09375 11.13671875 -2.0625 12.9375 C-3.24353062 13.61972064 -4.42451795 14.30201621 -5.60546875 14.984375 C-6.24145996 15.34466797 -6.87745117 15.70496094 -7.53271484 16.07617188 C-9.69269387 17.32529133 -11.80912547 18.63202534 -13.92578125 19.953125 C-15.4086677 20.86488666 -16.89173833 21.77634887 -18.375 22.6875 C-19.06722656 23.12473389 -19.75945312 23.56196777 -20.47265625 24.01245117 C-25.24772007 26.89036118 -28.98962615 27.90676589 -34.5625 28.25 C-36.125 26.5625 -36.125 26.5625 -37.5625 24.25 C-37.35749716 21.26859702 -37.10597962 19.75916381 -34.89599609 17.6887207 C-34.17492676 17.25132568 -33.45385742 16.81393066 -32.7109375 16.36328125 C-31.8972168 15.86006348 -31.08349609 15.3568457 -30.24511719 14.83837891 C-29.35985352 14.31421387 -28.47458984 13.79004883 -27.5625 13.25 C-26.1997998 12.41927979 -26.1997998 12.41927979 -24.80957031 11.57177734 C-21.94812176 9.83823862 -19.07072471 8.13453898 -16.1875 6.4375 C-14.71216797 5.56061523 -14.71216797 5.56061523 -13.20703125 4.66601562 C-12.26472656 4.10978516 -11.32242188 3.55355469 -10.3515625 2.98046875 C-9.50287598 2.47926514 -8.65418945 1.97806152 -7.77978516 1.46166992 C-4.81691122 -0.15743857 -3.31434701 -0.97005278 0 0 Z " fill="#FFFFFF" transform="translate(265.5625,145.75)"/>
<path d="M0 0 C1.14082031 -0.01998047 2.28164062 -0.03996094 3.45703125 -0.06054688 C5.10251953 -0.05958008 5.10251953 -0.05958008 6.78125 -0.05859375 C8.28268555 -0.06137329 8.28268555 -0.06137329 9.81445312 -0.06420898 C13.20926437 0.57000348 14.39397377 1.75231656 16.5 4.4375 C16.98519892 7.27937941 17.02795608 8.6880632 15.35351562 11.06494141 C12.69510972 13.0335344 10.68896849 12.82580565 7.40625 12.8359375 C6.21128906 12.83980469 5.01632813 12.84367188 3.78515625 12.84765625 C2.53605469 12.83605469 1.28695312 12.82445312 0 12.8125 C-1.24910156 12.82410156 -2.49820313 12.83570313 -3.78515625 12.84765625 C-5.57759766 12.84185547 -5.57759766 12.84185547 -7.40625 12.8359375 C-8.50259766 12.83255371 -9.59894531 12.82916992 -10.72851562 12.82568359 C-13.5 12.4375 -13.5 12.4375 -15.35351562 11.10009766 C-17.16501573 8.4731139 -16.95083138 6.52891514 -16.5 3.4375 C-11.91321972 -1.12312759 -6.05341124 -0.03762007 0 0 Z " fill="#FFFFFF" transform="translate(93.5,196.5625)"/>
<path d="M0 0 C4.42650672 1.415611 5.72114494 4.24873419 7.80078125 8.140625 C8.16945312 8.79289062 8.538125 9.44515625 8.91796875 10.1171875 C9.65536708 11.42580989 10.38228379 12.74039613 11.09838867 14.06079102 C12.17001353 16.00515998 13.30849428 17.89875931 14.453125 19.80078125 C16.17578125 23.015625 16.17578125 23.015625 16.11328125 26.328125 C15.17578125 29.015625 15.17578125 29.015625 12.17578125 31.015625 C9.73828125 30.953125 9.73828125 30.953125 7.17578125 30.015625 C2.00380783 24.09288124 -7.07743193 13.45970844 -6.69921875 5.328125 C-5.23184041 1.45005368 -4.30854915 0.02383706 0 0 Z " fill="#FFFFFF" transform="translate(128.82421875,117.984375)"/>
<path d="M0 0 C2.4375 0.75 2.4375 0.75 4.4375 2.75 C5.56129925 8.94530358 2.20927199 13.35409081 -0.875 18.4375 C-1.37451172 19.29150391 -1.87402344 20.14550781 -2.38867188 21.02539062 C-6.7398602 28.36189756 -6.7398602 28.36189756 -9.5625 30.75 C-12.41730169 31.17822025 -13.90742892 31.15659584 -16.375 29.625 C-18.20949679 26.72842612 -17.98954998 25.18927752 -17.5625 21.75 C-15.89797396 18.16238077 -13.84326318 14.85115259 -11.75 11.5 C-11.20279297 10.58992187 -10.65558594 9.67984375 -10.09179688 8.7421875 C-4.47426816 -0.43651397 -4.47426816 -0.43651397 0 0 Z " fill="#FFFFFF" transform="translate(220.5625,118.25)"/>
</svg>
