<?xml version="1.0" encoding="UTF-8"?>
<svg version="1.1" xmlns="http://www.w3.org/2000/svg" width="512" height="512">
<path d="M0 0 C1.68341237 -0.00417512 3.36682192 -0.00965362 5.05022627 -0.01631981 C9.66667431 -0.03076966 14.28294375 -0.02653113 18.89940155 -0.019153 C23.88177342 -0.01442253 28.86410659 -0.02693009 33.84646606 -0.03717041 C43.6034699 -0.05436585 53.36040936 -0.0551969 63.11742442 -0.04995751 C71.04765567 -0.04591612 78.97786788 -0.047359 86.90809822 -0.05270576 C88.03676318 -0.05345419 89.16542814 -0.05420261 90.32829507 -0.05497371 C92.62116722 -0.05650519 94.91403937 -0.05804353 97.20691151 -0.05958868 C118.70842995 -0.07331631 140.209912 -0.06787408 161.7114296 -0.05640347 C181.3825171 -0.04646986 201.05351056 -0.05941351 220.72458356 -0.08333766 C240.92386174 -0.10771911 261.1230961 -0.11733893 281.32238871 -0.11068493 C292.66238138 -0.10719072 304.0023017 -0.10943821 315.34228325 -0.12693596 C324.99527614 -0.14164594 334.64814574 -0.14230904 344.30113619 -0.12486505 C349.22580699 -0.11634298 354.15025743 -0.11423505 359.07491684 -0.1295166 C363.58469373 -0.1433375 368.09406092 -0.138634 372.60381395 -0.11927737 C374.23360184 -0.11550908 375.86342233 -0.11846317 377.49318122 -0.12888902 C390.08088058 -0.20367687 399.1425322 1.75169845 408.60926819 10.38768005 C417.49523032 19.5093922 420.23787635 30.30961179 420.09028625 42.77726746 C420.09371033 43.85483307 420.0971344 44.93239868 420.10066223 46.0426178 C420.10723091 49.62894494 420.0852758 53.21450828 420.06336975 56.80076599 C420.06214327 59.42545167 420.06268033 62.05013867 420.06483078 64.67482376 C420.06694765 70.97214164 420.04857435 77.26922926 420.02282546 83.56648816 C419.99390743 90.85861659 419.99084004 98.15066595 419.98768616 105.44285583 C419.96672616 124.67450013 419.91088128 143.9060936 419.85926819 163.13768005 C419.77676819 206.12018005 419.69426819 249.10268005 419.60926819 293.38768005 C266.48926819 293.38768005 113.36926819 293.38768005 -44.39073181 293.38768005 C-44.47323181 250.40518005 -44.55573181 207.42268005 -44.64073181 163.13768005 C-44.69535583 142.78418884 -44.69535583 142.78418884 -44.75108337 122.01951599 C-44.76914978 105.44285583 -44.76914978 105.44285583 -44.77250671 97.68119812 C-44.77623146 92.2633206 -44.7908811 86.84560357 -44.81303406 81.42778015 C-44.8412716 74.51160932 -44.8486875 67.59566877 -44.84302092 60.67944384 C-44.84420543 58.14457567 -44.8521088 55.60969937 -44.86759233 53.07487822 C-44.88758284 49.64205651 -44.88265808 46.21011065 -44.87174988 42.77726746 C-44.88340054 41.79307957 -44.89505119 40.80889168 -44.9070549 39.79487991 C-44.81063813 28.45235999 -41.36052182 18.56142138 -33.39073181 10.38768005 C-22.99555417 0.796446 -13.62780625 -0.05487264 0 0 Z M-6.39073181 38.38768005 C-6.39073181 109.99768005 -6.39073181 181.60768005 -6.39073181 255.38768005 C121.64926819 255.38768005 249.68926819 255.38768005 381.60926819 255.38768005 C381.60926819 183.77768005 381.60926819 112.16768005 381.60926819 38.38768005 C253.56926819 38.38768005 125.52926819 38.38768005 -6.39073181 38.38768005 Z " fill="#F3F3F3" transform="translate(68.39073181152344,79.61231994628906)"/>
<path d="M0 0 C168.96 0 337.92 0 512 0 C512 36.36842105 512 36.36842105 505.625 43.75 C499.17706466 49.27680172 494.59008494 51.15070287 486.2193346 51.13422108 C485.41460397 51.13657331 484.60987333 51.13892554 483.78075692 51.14134905 C481.06124748 51.14805106 478.34178569 51.14758046 475.62226868 51.14717102 C473.66197534 51.15046889 471.70168267 51.1541943 469.74139088 51.1583125 C464.33646369 51.16834927 458.9315476 51.17205198 453.5266124 51.17470181 C447.70436703 51.17859988 441.88213049 51.18817853 436.05989075 51.19691467 C421.99053311 51.21669278 407.92117474 51.22674683 393.85180667 51.23564246 C387.2306177 51.24002301 380.60942953 51.24539041 373.9882412 51.25063133 C351.98550362 51.26764467 329.98276654 51.28216467 307.98002338 51.28938007 C306.55682632 51.28985483 305.13362925 51.29033072 303.71043218 51.29080774 C303.00464857 51.29104411 302.29886495 51.29128049 301.57169395 51.29152403 C297.99579401 51.29272524 294.41989407 51.29394068 290.84399414 51.29516602 C289.77951855 51.29552624 289.77951855 51.29552624 288.69353841 51.29589374 C265.68261983 51.30378747 242.67175277 51.32722054 219.66085669 51.35972196 C195.33736381 51.39401467 171.01390108 51.41373069 146.69038361 51.41702431 C133.42935876 51.41909824 120.16840647 51.42797589 106.90740395 51.45348549 C95.61579434 51.47515615 84.32427885 51.4832608 73.03265081 51.47351871 C67.26968198 51.46896353 61.50690752 51.470931 55.74396515 51.49028015 C50.46923281 51.50783748 45.19483769 51.50697456 39.92010214 51.49138286 C38.01090595 51.48899548 36.10168686 51.49338856 34.19252578 51.50521151 C31.59789702 51.52028535 29.0044701 51.51068958 26.4098711 51.49498463 C25.66807632 51.50520683 24.92628154 51.51542904 24.16200814 51.52596101 C17.39729428 51.43655283 12.34043974 49.02128887 7.25 44.625 C-5.00559215 30.32680916 0 23.81333638 0 0 Z M208 7 C206.95143654 17.92509485 206.95143654 17.92509485 209.97607422 22.20956421 C213.82633136 24.48926242 217.02894509 24.70358882 221.3828125 24.64697266 C222.21431824 24.65573425 223.04582397 24.66449585 223.90252686 24.67352295 C226.6438862 24.69548239 229.38362502 24.68097711 232.125 24.6640625 C234.03402007 24.66743164 235.94303805 24.67228508 237.85205078 24.67855835 C241.85014295 24.68592498 245.84767602 24.67523094 249.84570312 24.65185547 C254.96738181 24.62336778 260.08775047 24.63977288 265.2093811 24.66971779 C269.15057219 24.68779644 273.09145332 24.68203014 277.03265381 24.66907883 C278.92087967 24.66574638 280.8091338 24.66982622 282.69732666 24.68147659 C285.33803705 24.69419484 287.9766343 24.67479623 290.6171875 24.64697266 C291.39551941 24.65709381 292.17385132 24.66721497 292.97576904 24.67764282 C296.60407226 24.60691369 298.89116815 24.06443824 302.02392578 22.20956421 C305.04856346 17.92509485 305.04856346 17.92509485 304 7 C272.32 7 240.64 7 208 7 Z " fill="#F6F6F6" transform="translate(0,381)"/>
</svg>
