<?xml version="1.0" encoding="UTF-8"?>
<svg version="1.1" xmlns="http://www.w3.org/2000/svg" width="512" height="512">
<path d="M0 0 C0.8797348 0.00021149 1.7594696 0.00042297 2.66586304 0.00064087 C16.98974101 0.03492446 30.64515282 1.06944693 44.625 4.375 C45.4617627 4.56223633 46.29852539 4.74947266 47.16064453 4.94238281 C64.98021437 8.97345565 81.5542629 15.75783847 97.625 24.375 C98.24391113 24.7064502 98.86282227 25.03790039 99.50048828 25.37939453 C119.28604981 36.08545968 138.31319489 50.88643266 152.625 68.375 C153.70201172 69.65503906 153.70201172 69.65503906 154.80078125 70.9609375 C189.93167363 113.11800835 205.59017946 166.22108366 200.9375 220.6875 C199.0647003 239.56672776 194.14050844 257.60760252 187.625 275.375 C187.22667969 276.4784375 186.82835937 277.581875 186.41796875 278.71875 C181.41838214 291.5798774 173.86111773 303.66778513 166.625 315.375 C167.57375 315.41625 168.5225 315.4575 169.5 315.5 C180.37547348 317.16108074 188.30504829 326.47934399 195.68066406 333.91308594 C196.85383249 335.08082361 198.02784782 336.24771096 199.20263672 337.41381836 C202.36872877 340.56178778 205.52217224 343.72214223 208.67284107 346.88553905 C211.98451923 350.20740244 215.30601241 353.51942946 218.62591553 356.83306885 C224.1976 362.39749294 229.76083639 367.97025873 235.31933594 373.54785156 C241.72959718 379.9798783 248.15414037 386.39736899 254.5862906 392.8075006 C260.12600305 398.32901315 265.65782248 403.85834258 271.18321776 409.39418244 C274.47562433 412.69279872 277.7706109 415.98871589 281.07276154 419.27758026 C284.1780144 422.37120832 287.27318603 425.47459261 290.3611145 428.58551025 C291.49037267 429.72002022 292.62297926 430.85120951 293.75930023 431.97864532 C305.07214418 443.21121351 312.82162307 453.92724268 313.0625 470.25 C312.98929553 481.42969535 310.07868344 489.9358536 302.625 498.375 C302.08875 498.99246094 301.5525 499.60992187 301 500.24609375 C294.09669361 507.67673604 285.42055485 512.1430367 275.20703125 512.74609375 C259.88070516 513.13870816 249.35248795 509.44245766 238.01375961 498.96123886 C234.94712097 495.98503891 231.91270725 492.97930244 228.88818359 489.96044922 C227.72471647 488.80625572 226.56086186 487.65245271 225.39665222 486.49900818 C222.25335801 483.38179295 219.11661231 480.25807194 215.9818759 477.13225317 C214.01879059 475.17505453 212.05454729 473.21902525 210.08995438 471.26334 C203.93017286 465.13085886 197.77437492 458.9944205 191.62435758 452.85214698 C184.54908998 445.78584014 177.46093885 438.73280351 170.36124742 431.69103801 C164.8565317 426.22966787 159.36350916 420.75671294 153.87908995 415.27496159 C150.61093792 412.00889689 147.33819794 408.74778484 144.05317307 405.49868393 C140.96175072 402.44041971 137.88521487 399.36790418 134.81907082 396.28430367 C133.69803659 395.16173934 132.57195313 394.04418864 131.44024086 392.93239021 C124.44926727 386.05717923 119.63943485 379.42468641 115.625 370.375 C114.965 369.385 114.305 368.395 113.625 367.375 C112.7278125 367.931875 111.830625 368.48875 110.90625 369.0625 C62.9425694 398.5370603 7.43007322 408.9948108 -47.6953125 395.8359375 C-70.92313455 389.99151776 -93.94451569 380.56604742 -113.375 366.375 C-114.07093262 365.86791504 -114.76686523 365.36083008 -115.48388672 364.83837891 C-117.7715831 363.15704798 -120.04533724 361.45890807 -122.3125 359.75 C-123.36050781 358.9602478 -123.36050781 358.9602478 -124.4296875 358.15454102 C-128.50544535 355.01313696 -132.20345309 351.69480092 -135.76708984 347.98120117 C-137.44856691 346.30151128 -139.21771391 344.80936702 -141.0625 343.3125 C-171.80937024 316.66917724 -190.72759108 273.75632392 -197.375 234.375 C-197.55160156 233.38532227 -197.72820312 232.39564453 -197.91015625 231.37597656 C-199.56147695 221.24099578 -199.77386694 211.24940614 -199.75 201 C-199.74945618 200.11960052 -199.74891235 199.23920105 -199.74835205 198.3321228 C-199.70782856 184.02976289 -198.81494679 170.31298259 -195.375 156.375 C-195.15005859 155.46282715 -194.92511719 154.5506543 -194.69335938 153.61083984 C-193.1289793 147.4621366 -191.33168251 141.40936841 -189.375 135.375 C-189.04725586 134.34101074 -189.04725586 134.34101074 -188.71289062 133.28613281 C-179.62441764 105.13983108 -162.50179605 80.67003 -142.375 59.375 C-141.57191406 58.51777344 -140.76882812 57.66054688 -139.94140625 56.77734375 C-129.14165044 45.58744898 -116.49631886 36.63518108 -103.375 28.375 C-102.61823975 27.89627441 -101.86147949 27.41754883 -101.08178711 26.92431641 C-95.06837268 23.20943375 -88.92954875 20.16024984 -82.4375 17.375 C-81.43823486 16.94493652 -80.43896973 16.51487305 -79.40942383 16.07177734 C-64.56712852 9.80191267 -49.23896715 5.22358934 -33.375 2.375 C-32.39273438 2.19694824 -31.41046875 2.01889648 -30.3984375 1.83544922 C-20.2577811 0.18419856 -10.25462024 -0.0227985 0 0 Z M-104 94.9375 C-104.78375 95.741875 -105.5675 96.54625 -106.375 97.375 C-106.94347656 97.89835937 -107.51195312 98.42171875 -108.09765625 98.9609375 C-135.0597573 124.36856354 -147.25526804 163.64992088 -148.3359375 199.6875 C-149.00190298 241.51579965 -130.97607909 278.68474018 -102.375 308.375 C-80.24099116 330.61876425 -50.96464778 343.34988927 -20.375 348.375 C-19.31410156 348.56835938 -18.25320312 348.76171875 -17.16015625 348.9609375 C25.32498076 353.60843443 64.56562702 340.83166881 97.625 314.375 C103.84687042 309.15291363 109.51258799 303.6864852 114.625 297.375 C115.38425781 296.45332031 116.14351563 295.53164063 116.92578125 294.58203125 C130.22275209 278.10688787 138.99012656 259.92905267 144.9375 239.6875 C145.18016602 238.86926758 145.42283203 238.05103516 145.67285156 237.20800781 C148.99084939 225.33924332 149.99381887 213.41079553 149.9375 201.125 C149.93331055 199.86155762 149.92912109 198.59811523 149.92480469 197.29638672 C149.80560526 187.37620455 148.87295655 178.02482434 146.625 168.375 C146.35816406 167.13621094 146.09132813 165.89742188 145.81640625 164.62109375 C136.51480527 125.63705055 110.90652967 93.96412971 77.7265625 72.5 C19.66387664 36.86700923 -56.05917018 48.13811851 -104 94.9375 Z " fill="#ffffff" transform="translate(199.375,-0.375)"/>
</svg>
