<svg version="1.1" id="Layer_1" xmlns="http://www.w3.org/2000/svg" xmlns:xlink="http://www.w3.org/1999/xlink" x="0px" y="0px"
	 width="100%" viewBox="0 0 364 364" enable-background="new 0 0 364 364" xml:space="preserve">
<path fill="#1C4ED7" opacity="1.000000" stroke="none" 
	d="
M198.000000,365.000000 
	C132.022491,365.000000 66.544983,365.000000 1.033737,365.000000 
	C1.033737,243.730835 1.033737,122.461647 1.033737,1.096233 
	C122.227448,1.096233 243.455002,1.096233 364.841278,1.096233 
	C364.841278,122.333168 364.841278,243.666565 364.841278,365.000000 
	C309.461761,365.000000 253.980881,365.000000 198.000000,365.000000 
M243.816666,34.573051 
	C243.517731,34.386234 243.218811,34.199417 242.984955,34.011265 
	C242.984955,34.011265 242.969528,34.074497 242.901520,33.368912 
	C239.023422,29.623035 235.145340,25.877159 231.378510,22.056946 
	C231.378510,22.056946 231.451263,22.169243 231.096405,21.623892 
	C230.448624,21.115879 229.800842,20.607868 228.458862,19.967722 
	C219.997864,13.425385 210.435150,9.534664 200.018936,7.114869 
	C184.890106,3.600282 170.004272,4.630800 155.632828,9.628447 
	C141.022354,14.709209 129.335999,24.325106 120.238396,36.869370 
	C113.437233,46.247189 109.167084,56.756428 106.708313,68.638916 
	C106.439980,69.383240 106.171646,70.127571 105.639015,71.661011 
	C103.221214,91.456596 107.852409,109.572296 118.992218,125.982941 
	C121.151306,129.163605 124.355690,131.634735 127.557732,134.758987 
	C128.883469,136.143906 130.209198,137.528809 131.870560,139.468155 
	C132.232147,139.988113 132.593719,140.508072 133.207153,141.665283 
	C135.727753,143.470016 138.060181,145.662384 140.809067,146.996872 
	C146.136230,149.583023 151.697678,151.686554 157.907135,154.093079 
	C163.711761,155.419205 169.466309,157.520798 175.332123,157.899765 
	C185.543045,158.559479 195.533859,157.718506 205.652527,154.474686 
	C216.443695,151.015274 225.638641,145.646500 233.835983,138.326996 
	C249.983902,123.908318 257.999512,105.415756 258.979919,84.031288 
	C259.669189,68.997078 256.311737,54.719486 248.035767,41.234291 
	C247.701431,40.753525 247.367081,40.272755 246.854401,39.586697 
	C246.854401,39.586697 246.888412,39.316895 246.821732,38.592598 
	C246.158875,37.902996 245.496017,37.213394 244.949295,36.590313 
	C244.949295,36.590313 244.881287,36.705582 244.813126,36.007599 
	C244.507568,35.680710 244.202026,35.353821 243.963989,35.040047 
	C243.963989,35.040047 243.941544,35.105057 243.816666,34.573051 
M329.803558,271.587311 
	C329.495941,271.411072 329.188324,271.234863 328.948730,271.070679 
	C328.948730,271.070679 328.920258,271.133636 328.848511,270.446747 
	C325.320831,267.344940 321.793182,264.243103 318.373871,261.077881 
	C318.373871,261.077881 318.435028,261.187500 318.081421,260.596802 
	C317.105835,259.766541 316.130249,258.936279 314.466248,257.972595 
	C304.044403,250.649872 293.622589,243.327148 282.799835,235.424454 
	C276.855652,232.606033 270.911469,229.787613 265.034393,226.974380 
	C265.034393,226.974380 265.026123,227.041199 264.762299,226.389938 
	C262.891083,225.632401 261.019836,224.874847 258.358337,224.096603 
	C251.318359,221.810806 244.339661,219.307648 237.221100,217.300537 
	C230.146698,215.305878 222.931702,213.809952 214.976151,211.974045 
	C210.717087,211.626816 206.458038,211.279572 202.072662,210.961609 
	C202.072662,210.961609 202.044785,210.834976 201.402481,210.302582 
	C195.126923,209.866867 188.807510,208.740585 182.584717,209.135696 
	C168.588745,210.024384 154.603333,211.375870 140.692856,213.157486 
	C135.652725,213.803009 130.838440,216.211823 125.905739,217.948151 
	C125.905739,217.948151 125.773781,217.931580 125.097794,217.914520 
	C122.840424,218.276581 120.492783,218.356415 118.339897,219.045105 
	C100.269051,224.825729 83.631180,233.585876 67.734764,243.812195 
	C66.182152,244.811020 65.111176,246.558517 63.792656,247.840378 
	C63.792656,247.840378 63.908829,247.808212 63.166557,247.845535 
	C58.387199,251.870331 53.607838,255.895111 48.807980,259.831329 
	C48.807980,259.831329 48.894352,259.802948 48.171307,259.868835 
	C46.153069,261.262756 43.857819,262.383698 42.166744,264.099976 
	C36.280308,270.074188 30.590576,276.242828 24.851620,282.361481 
	C21.848358,285.563446 22.979982,288.191864 26.482304,290.693298 
	C26.873014,291.118164 27.263725,291.543030 27.863281,292.686707 
	C33.243599,298.144531 38.623913,303.602386 43.939808,309.063385 
	C43.939808,309.063385 43.939163,308.998901 44.109631,309.555389 
	C44.697956,310.019623 45.286278,310.483826 46.447540,311.036774 
	C46.610756,311.140289 46.773972,311.243774 47.223881,311.871246 
	C47.837440,312.400604 48.450996,312.929993 49.434139,313.668701 
	C49.792168,314.085358 50.150200,314.502014 50.934879,315.517120 
	C52.308281,316.492950 53.681679,317.468781 55.420715,318.663177 
	C55.783180,319.077332 56.145645,319.491455 56.847977,320.561829 
	C74.261116,334.891052 93.944923,345.115631 115.099190,352.632507 
	C117.349205,353.432007 119.843353,353.544495 122.860985,354.045929 
	C124.117577,354.658966 125.374168,355.272003 127.370804,356.235901 
	C156.999908,364.713898 187.115280,366.352936 217.305206,360.744415 
	C231.080276,358.185333 244.382507,353.080994 258.592590,349.128326 
	C262.434296,347.582123 266.362183,346.219147 270.103943,344.460327 
	C297.279449,331.686493 320.507111,313.744995 339.858002,290.795807 
	C341.527985,288.815277 343.784241,286.658661 340.008057,283.569427 
	C337.637024,280.704468 335.266022,277.839508 332.806549,274.470764 
	C332.511597,274.327179 332.216675,274.183563 331.984497,274.022766 
	C331.984497,274.022766 331.979889,274.087677 331.805145,273.568390 
	C331.493103,273.403656 331.181091,273.238922 330.937988,273.064087 
	C330.937988,273.064087 330.926361,273.132782 330.796631,272.595703 
	C330.489349,272.417816 330.182068,272.239929 329.943451,272.053955 
	C329.943451,272.053955 329.936523,272.122772 329.803558,271.587311 
z"/>
<path fill="#FEFEFE" opacity="1.000000" stroke="none" 
	d="
M332.895020,274.974548 
	C335.266022,277.839508 337.637024,280.704468 340.308411,284.233398 
	C338.907043,287.719696 337.684723,291.023254 335.419464,293.279877 
	C326.323578,302.341003 317.427185,311.723419 307.477631,319.777008 
	C294.005859,330.681580 278.736725,338.947113 262.685059,346.256897 
	C261.688232,346.573914 260.968079,346.806152 259.982513,347.210022 
	C259.149261,347.635742 258.581390,347.889862 257.661865,348.247406 
	C250.863098,350.800171 244.577194,353.905670 237.929581,355.538757 
	C228.887238,357.760162 219.592438,359.015778 210.363266,360.401672 
	C192.527451,363.080048 174.637939,362.704193 156.754791,360.828369 
	C152.388840,360.370361 148.017822,359.876556 143.691086,359.149536 
	C137.982651,358.190277 132.315598,356.984741 126.630760,355.885071 
	C125.374168,355.272003 124.117577,354.658966 122.167130,353.970184 
	C119.715538,353.017517 118.028992,351.936310 116.189095,351.295135 
	C96.417435,344.405182 78.152321,334.692047 61.276367,322.314270 
	C59.859985,321.275452 58.105507,320.697601 56.508110,319.905609 
	C56.145645,319.491455 55.783180,319.077332 55.093231,318.202972 
	C53.346573,316.801422 51.927402,315.860046 50.508232,314.918671 
	C50.150200,314.502014 49.792168,314.085358 49.159420,313.247742 
	C48.235531,312.333588 47.586357,311.840424 46.937187,311.347229 
	C46.773972,311.243774 46.610756,311.140289 46.034706,310.727234 
	C45.060966,309.944733 44.500061,309.471832 43.939163,308.998901 
	C43.939163,308.998901 43.939808,309.063385 43.865372,308.739777 
	C38.412102,302.933411 33.033268,297.450653 27.654438,291.967896 
	C27.263725,291.543030 26.873014,291.118164 26.176550,290.156311 
	C23.718199,287.232941 23.948099,284.967834 26.158470,282.742706 
	C33.745850,275.104828 41.317005,267.450806 48.894352,259.802948 
	C48.894352,259.802948 48.807980,259.831329 49.073174,259.632355 
	C54.195190,255.558319 59.052010,251.683273 63.908829,247.808212 
	C63.908829,247.808212 63.792656,247.840378 64.070572,247.641846 
	C70.075562,243.976364 75.866791,240.610413 81.516975,237.022354 
	C95.259529,228.295319 110.293182,222.605850 125.773781,217.931580 
	C125.773781,217.931580 125.905739,217.948151 126.319107,217.793365 
	C151.425049,210.815155 176.581284,209.124512 202.044785,210.834976 
	C202.044785,210.834976 202.072662,210.961609 202.470581,211.117615 
	C207.171783,211.547516 211.475067,211.821426 215.778351,212.095322 
	C222.931702,213.809952 230.146698,215.305878 237.221100,217.300537 
	C244.339661,219.307648 251.318359,221.810806 258.882568,224.405151 
	C261.279907,225.489517 263.153015,226.265350 265.026123,227.041199 
	C265.026123,227.041199 265.034393,226.974380 265.102051,227.304962 
	C271.180054,230.425186 277.190399,233.214813 283.200745,236.004425 
	C293.622589,243.327148 304.044403,250.649872 314.898376,258.355957 
	C316.365356,259.555389 317.400208,260.371460 318.435028,261.187500 
	C318.435028,261.187500 318.373871,261.077881 318.454590,261.452271 
	C321.996948,264.928955 325.458618,268.031311 328.920258,271.133636 
	C328.920258,271.133636 328.948730,271.070679 328.885925,271.391113 
	C329.194244,271.848633 329.565399,271.985687 329.936523,272.122772 
	C329.936523,272.122772 329.943451,272.053955 329.876648,272.385498 
	C330.182007,272.855621 330.554169,272.994202 330.926361,273.132782 
	C330.926361,273.132782 330.937988,273.064087 330.881012,273.407837 
	C331.209320,273.863617 331.594604,273.975647 331.979889,274.087677 
	C331.979889,274.087677 331.984497,274.022766 331.987549,274.281189 
	C332.292084,274.684601 332.593567,274.829590 332.895020,274.974548 
z"/>
<path fill="#FDFDFD" opacity="1.000000" stroke="none" 
	d="
M231.451263,22.169247 
	C231.451263,22.169243 231.378510,22.056946 231.461136,22.435268 
	C235.352341,26.567228 239.160934,30.320866 242.969528,34.074501 
	C242.969528,34.074497 242.984955,34.011265 242.928421,34.331940 
	C243.228439,34.803425 243.584991,34.954239 243.941544,35.105057 
	C243.941544,35.105057 243.963989,35.040047 243.871735,35.403477 
	C244.146744,36.079800 244.514008,36.392689 244.881287,36.705582 
	C244.881287,36.705582 244.949295,36.590313 244.929825,36.922417 
	C245.569717,37.941978 246.229065,38.629433 246.888412,39.316895 
	C246.888412,39.316895 246.854401,39.586697 246.965103,40.000381 
	C247.414291,40.889954 247.752777,41.365841 248.091263,41.841728 
	C256.311737,54.719486 259.669189,68.997078 258.979919,84.031288 
	C257.999512,105.415756 249.983902,123.908318 233.835983,138.326996 
	C225.638641,145.646500 216.443695,151.015274 205.652527,154.474686 
	C195.533859,157.718506 185.543045,158.559479 175.332123,157.899765 
	C169.466309,157.520798 163.711761,155.419205 157.170105,153.990402 
	C149.131561,149.517197 141.830063,145.146667 134.259369,140.548340 
	C133.171768,139.851593 132.353363,139.382645 131.534943,138.913712 
	C130.209198,137.528809 128.883469,136.143906 127.209015,134.225739 
	C117.617798,122.584335 110.747490,110.276886 107.842842,95.636520 
	C107.632263,94.155548 107.376457,93.025414 107.097992,91.529617 
	C106.984016,90.437737 106.892708,89.711517 106.862762,88.524826 
	C106.882950,83.385811 106.841759,78.707268 106.868927,73.648613 
	C106.858124,72.513306 106.778961,71.758095 106.801498,70.744781 
	C106.967361,69.709602 107.031509,68.932518 107.095665,68.155441 
	C109.167084,56.756428 113.437233,46.247189 120.238396,36.869370 
	C129.335999,24.325106 141.022354,14.709209 155.632828,9.628447 
	C170.004272,4.630800 184.890106,3.600282 200.018936,7.114869 
	C210.435150,9.534664 219.997864,13.425385 228.913147,20.335720 
	C230.062042,21.192230 230.756653,21.680740 231.451263,22.169247 
z"/>
<path fill="#6B738C" opacity="1.000000" stroke="none" 
	d="
M262.961761,346.172119 
	C278.736725,338.947113 294.005859,330.681580 307.477631,319.777008 
	C317.427185,311.723419 326.323578,302.341003 335.419464,293.279877 
	C337.684723,291.023254 338.907043,287.719696 340.552063,284.498840 
	C343.784241,286.658661 341.527985,288.815277 339.858002,290.795807 
	C320.507111,313.744995 297.279449,331.686493 270.103943,344.460327 
	C266.362183,346.219147 262.434296,347.582123 258.274597,348.968170 
	C257.996948,348.588531 258.015930,348.367188 258.013550,348.143982 
	C258.581390,347.889862 259.149261,347.635742 260.278870,347.202942 
	C261.547668,346.740204 262.254700,346.456177 262.961761,346.172119 
z"/>
<path fill="#7A8298" opacity="1.000000" stroke="none" 
	d="
M257.661865,348.247406 
	C258.015930,348.367188 257.996948,348.588531 257.927917,348.969543 
	C244.382507,353.080994 231.080276,358.185333 217.305206,360.744415 
	C187.115280,366.352936 156.999908,364.713898 127.000778,356.060486 
	C132.315598,356.984741 137.982651,358.190277 143.691086,359.149536 
	C148.017822,359.876556 152.388840,360.370361 156.754791,360.828369 
	C174.637939,362.704193 192.527451,363.080048 210.363266,360.401672 
	C219.592438,359.015778 228.887238,357.760162 237.929581,355.538757 
	C244.577194,353.905670 250.863098,350.800171 257.661865,348.247406 
z"/>
<path fill="#5E677E" opacity="1.000000" stroke="none" 
	d="
M125.435791,217.923050 
	C110.293182,222.605850 95.259529,228.295319 81.516975,237.022354 
	C75.866791,240.610413 70.075562,243.976364 64.082558,247.700928 
	C65.111176,246.558517 66.182152,244.811020 67.734764,243.812195 
	C83.631180,233.585876 100.269051,224.825729 118.339897,219.045105 
	C120.492783,218.356415 122.840424,218.276581 125.435791,217.923050 
z"/>
<path fill="#5A678A" opacity="1.000000" stroke="none" 
	d="
M56.678043,320.233704 
	C58.105507,320.697601 59.859985,321.275452 61.276367,322.314270 
	C78.152321,334.692047 96.417435,344.405182 116.189095,351.295135 
	C118.028992,351.936310 119.715538,353.017517 121.848755,353.935059 
	C119.843353,353.544495 117.349205,353.432007 115.099190,352.632507 
	C93.944923,345.115631 74.261116,334.891052 56.678043,320.233704 
z"/>
<path fill="#5E677E" opacity="1.000000" stroke="none" 
	d="
M201.723633,210.568787 
	C176.581284,209.124512 151.425049,210.815155 126.326790,217.727310 
	C130.838440,216.211823 135.652725,213.803009 140.692856,213.157486 
	C154.603333,211.375870 168.588745,210.024384 182.584717,209.135696 
	C188.807510,208.740585 195.126923,209.866867 201.723633,210.568787 
z"/>
<path fill="#65708E" opacity="1.000000" stroke="none" 
	d="
M107.797615,95.987366 
	C110.747490,110.276886 117.617798,122.584335 126.969101,134.062805 
	C124.355690,131.634735 121.151306,129.163605 118.992218,125.982941 
	C107.852409,109.572296 103.221214,91.456596 105.967705,71.316284 
	C106.296394,70.971558 106.699791,71.002892 106.699791,71.002892 
	C106.778961,71.758095 106.858124,72.513306 106.686989,74.010880 
	C106.558258,79.497269 106.679825,84.241280 106.801399,88.985291 
	C106.892708,89.711517 106.984016,90.437737 107.059402,91.882881 
	C107.294853,93.730324 107.546234,94.858841 107.797615,95.987366 
z"/>
<path fill="#5E677E" opacity="1.000000" stroke="none" 
	d="
M48.532829,259.835876 
	C41.317005,267.450806 33.745850,275.104828 26.158470,282.742706 
	C23.948099,284.967834 23.718199,287.232941 25.980038,290.055603 
	C22.979982,288.191864 21.848358,285.563446 24.851620,282.361481 
	C30.590576,276.242828 36.280308,270.074188 42.166744,264.099976 
	C43.857819,262.383698 46.153069,261.262756 48.532829,259.835876 
z"/>
<path fill="#5A6585" opacity="1.000000" stroke="none" 
	d="
M134.528564,140.776138 
	C141.830063,145.146667 149.131561,149.517197 156.797546,153.938904 
	C151.697678,151.686554 146.136230,149.583023 140.809067,146.996872 
	C138.060181,145.662384 135.727753,143.470016 133.476608,141.296402 
	C134.006897,140.877075 134.267731,140.826614 134.528564,140.776138 
z"/>
<path fill="#5E677E" opacity="1.000000" stroke="none" 
	d="
M63.537693,247.826874 
	C59.052010,251.683273 54.195190,255.558319 49.083427,259.676636 
	C53.607838,255.895111 58.387199,251.870331 63.537693,247.826874 
z"/>
<path fill="#5E677E" opacity="1.000000" stroke="none" 
	d="
M27.758860,292.327301 
	C33.033268,297.450653 38.412102,302.933411 43.897583,308.738190 
	C38.623913,303.602386 33.243599,298.144531 27.758860,292.327301 
z"/>
<path fill="#858A98" opacity="1.000000" stroke="none" 
	d="
M283.000305,235.714447 
	C277.190399,233.214813 271.180054,230.425186 265.068481,227.302368 
	C270.911469,229.787613 276.855652,232.606033 283.000305,235.714447 
z"/>
<path fill="#646D86" opacity="1.000000" stroke="none" 
	d="
M242.935516,33.721706 
	C239.160934,30.320866 235.352341,26.567228 231.405518,22.472439 
	C235.145340,25.877159 239.023422,29.623035 242.935516,33.721706 
z"/>
<path fill="#6B7388" opacity="1.000000" stroke="none" 
	d="
M328.884399,270.790192 
	C325.458618,268.031311 321.996948,264.928955 318.400391,261.483948 
	C321.793182,264.243103 325.320831,267.344940 328.884399,270.790192 
z"/>
<path fill="#5E677E" opacity="1.000000" stroke="none" 
	d="
M215.377258,212.034683 
	C211.475067,211.821426 207.171783,211.547516 202.533737,211.102966 
	C206.458038,211.279572 210.717087,211.626816 215.377258,212.034683 
z"/>
<path fill="#858A98" opacity="1.000000" stroke="none" 
	d="
M264.894226,226.715576 
	C263.153015,226.265350 261.279907,225.489517 259.277710,224.415497 
	C261.019836,224.874847 262.891083,225.632401 264.894226,226.715576 
z"/>
<path fill="#5A678A" opacity="1.000000" stroke="none" 
	d="
M50.721558,315.217896 
	C51.927402,315.860046 53.346573,316.801422 54.910408,318.093689 
	C53.681679,317.468781 52.308281,316.492950 50.721558,315.217896 
z"/>
<path fill="#7E869C" opacity="1.000000" stroke="none" 
	d="
M106.801498,70.744781 
	C106.699791,71.002892 106.296394,70.971558 106.099854,70.921722 
	C106.171646,70.127571 106.439980,69.383240 106.901993,68.397179 
	C107.031509,68.932518 106.967361,69.709602 106.801498,70.744781 
z"/>
<path fill="#6B7388" opacity="1.000000" stroke="none" 
	d="
M318.258240,260.892151 
	C317.400208,260.371460 316.365356,259.555389 315.242615,258.422668 
	C316.130249,258.936279 317.105835,259.766541 318.258240,260.892151 
z"/>
<path fill="#5A678A" opacity="1.000000" stroke="none" 
	d="
M47.080532,311.609253 
	C47.586357,311.840424 48.235531,312.333588 48.974628,313.143066 
	C48.450996,312.929993 47.837440,312.400604 47.080532,311.609253 
z"/>
<path fill="#5E677E" opacity="1.000000" stroke="none" 
	d="
M44.024395,309.277161 
	C44.500061,309.471832 45.060966,309.944733 45.748238,310.682861 
	C45.286278,310.483826 44.697956,310.019623 44.024395,309.277161 
z"/>
<path fill="#646D86" opacity="1.000000" stroke="none" 
	d="
M231.273834,21.896572 
	C230.756653,21.680740 230.062042,21.192230 229.260254,20.401787 
	C229.800842,20.607868 230.448624,21.115879 231.273834,21.896572 
z"/>
<path fill="#65708E" opacity="1.000000" stroke="none" 
	d="
M134.259369,140.548340 
	C134.267731,140.826614 134.006897,140.877075 133.350677,140.977783 
	C132.593719,140.508072 132.232147,139.988113 131.702759,139.190933 
	C132.353363,139.382645 133.171768,139.851593 134.259369,140.548340 
z"/>
<path fill="#646D86" opacity="1.000000" stroke="none" 
	d="
M246.855072,38.954742 
	C246.229065,38.629433 245.569717,37.941978 244.871765,36.889160 
	C245.496017,37.213394 246.158875,37.902996 246.855072,38.954742 
z"/>
<path fill="#646D86" opacity="1.000000" stroke="none" 
	d="
M248.063507,41.538010 
	C247.752777,41.365841 247.414291,40.889954 247.054260,40.103027 
	C247.367081,40.272755 247.701431,40.753525 248.063507,41.538010 
z"/>
<path fill="#6B7388" opacity="1.000000" stroke="none" 
	d="
M332.850769,274.722656 
	C332.593567,274.829590 332.292084,274.684601 331.956177,274.289795 
	C332.216675,274.183563 332.511597,274.327179 332.850769,274.722656 
z"/>
<path fill="#6B7388" opacity="1.000000" stroke="none" 
	d="
M331.892517,273.828033 
	C331.594604,273.975647 331.209320,273.863617 330.846558,273.412872 
	C331.181091,273.238922 331.493103,273.403656 331.892517,273.828033 
z"/>
<path fill="#6B7388" opacity="1.000000" stroke="none" 
	d="
M330.861511,272.864258 
	C330.554169,272.994202 330.182007,272.855621 329.842285,272.389526 
	C330.182068,272.239929 330.489349,272.417816 330.861511,272.864258 
z"/>
<path fill="#6B7388" opacity="1.000000" stroke="none" 
	d="
M329.870056,271.855042 
	C329.565399,271.985687 329.194244,271.848633 328.851929,271.385101 
	C329.188324,271.234863 329.495941,271.411072 329.870056,271.855042 
z"/>
<path fill="#646D86" opacity="1.000000" stroke="none" 
	d="
M244.847198,36.356590 
	C244.514008,36.392689 244.146744,36.079800 243.837982,35.396919 
	C244.202026,35.353821 244.507568,35.680710 244.847198,36.356590 
z"/>
<path fill="#646D86" opacity="1.000000" stroke="none" 
	d="
M243.879105,34.839050 
	C243.584991,34.954239 243.228439,34.803425 242.895874,34.332603 
	C243.218811,34.199417 243.517731,34.386234 243.879105,34.839050 
z"/>
<path fill="#7A8298" opacity="1.000000" stroke="none" 
	d="
M262.685059,346.256897 
	C262.254700,346.456177 261.547668,346.740204 260.544250,347.031311 
	C260.968079,346.806152 261.688232,346.573914 262.685059,346.256897 
z"/>
<path fill="#7E869C" opacity="1.000000" stroke="none" 
	d="
M106.862762,88.524826 
	C106.679825,84.241280 106.558258,79.497269 106.618637,74.390991 
	C106.841759,78.707268 106.882950,83.385811 106.862762,88.524826 
z"/>
<path fill="#7E869C" opacity="1.000000" stroke="none" 
	d="
M107.842842,95.636520 
	C107.546234,94.858841 107.294853,93.730324 107.082054,92.248535 
	C107.376457,93.025414 107.632263,94.155548 107.842842,95.636520 
z"/>
</svg>