<?xml version="1.0" encoding="UTF-8"?>
<svg version="1.1" xmlns="http://www.w3.org/2000/svg" width="512" height="512">
<path d="M0 0 C1.17620022 -0.00644889 2.35240043 -0.01289778 3.56424308 -0.0195421 C5.48883365 -0.01489629 5.48883365 -0.01489629 7.45230484 -0.01015663 C8.83629169 -0.01389476 10.22027642 -0.01849693 11.60425782 -0.02388728 C15.40234867 -0.03611274 19.2003514 -0.03585735 22.99845743 -0.03349853 C27.09675483 -0.03309024 31.19502402 -0.04413065 35.29330826 -0.05361366 C43.32101266 -0.0702224 51.34868769 -0.07572316 59.37640783 -0.07683842 C65.90269019 -0.077789 72.42896286 -0.08189981 78.95524216 -0.08823967 C97.4625511 -0.10585213 115.96983685 -0.11507859 134.47715423 -0.11357872 C135.97357052 -0.11345885 135.97357052 -0.11345885 137.50021744 -0.11333656 C138.49904789 -0.1132548 139.49787834 -0.11317304 140.52697638 -0.1130888 C156.71206152 -0.11227601 172.89705358 -0.13141183 189.08211181 -0.1596133 C205.70483909 -0.18834857 222.327521 -0.20215322 238.95027375 -0.20042574 C248.281046 -0.19976204 257.61172068 -0.20524569 266.94247055 -0.22678185 C274.88746531 -0.24500214 282.83231827 -0.24933405 290.77732489 -0.235763 C294.82923788 -0.22923747 298.88087891 -0.22910093 302.93276596 -0.2464695 C306.64639808 -0.26222406 310.35954313 -0.25931272 314.07316354 -0.24190123 C316.04385782 -0.23739123 318.01456734 -0.25247002 319.98520255 -0.26838052 C329.84381794 -0.19196629 338.1463045 1.67583393 345.51095963 8.55414391 C351.60080996 15.32754887 354.30125974 22.42798533 354.26926041 31.54779625 C354.26955246 32.25092949 354.26984451 32.95406273 354.27014542 33.67850304 C354.26876124 35.98353332 354.2532436 38.28823316 354.23752213 40.59320641 C354.23378874 42.19888698 354.23094331 43.80456985 354.22894669 45.41025352 C354.22133584 49.6221408 354.20170942 53.83388861 354.17953873 58.04572105 C354.15541416 63.10686423 354.14628717 68.16805421 354.13463211 73.22923851 C354.11528338 80.90534542 354.07694321 88.58114677 354.04220963 96.25726891 C332.92220963 96.25726891 311.80220963 96.25726891 290.04220963 96.25726891 C290.04220963 85.69726891 290.04220963 75.13726891 290.04220963 64.25726891 C216.12220963 64.58726891 142.20220963 64.91726891 66.04220963 65.25726891 C70.00220963 70.53726891 73.96220963 75.81726891 78.04220963 81.25726891 C80.24019568 84.41090107 82.41259911 87.56013263 84.54220963 90.75726891 C89.04858089 97.43221666 93.72301204 103.93205459 98.59518814 110.34369469 C102.67924895 115.73140757 106.59218626 121.22576166 110.47214127 126.76166344 C114.11767395 131.95975858 117.81539389 137.11717728 121.54220963 142.25726891 C126.2528213 148.75770319 130.90518783 155.29591074 135.52267838 161.86273766 C139.15675529 167.02293611 142.83892363 172.14655831 146.54220963 177.25726891 C151.25261619 183.75785374 155.9051857 190.29590771 160.52267838 196.86273766 C164.15676469 202.02294945 167.83981315 207.14590336 171.54220963 212.25726891 C173.16490356 214.50416967 174.78697341 216.75151978 176.40890884 218.99896812 C177.50949796 220.52070943 178.61274602 222.04053078 179.71847916 223.55853844 C181.35487801 225.80685389 182.98063258 228.06254301 184.60470963 230.31976891 C185.33754166 231.31847008 185.33754166 231.31847008 186.08517838 232.33734703 C193.45547335 242.64134881 196.05110427 251.76893182 194.00314713 264.28851891 C191.55869596 271.84048187 186.79246328 278.25600476 182.10470963 284.56976891 C180.94842147 286.14821508 179.79352321 287.72768015 178.63986588 289.30805016 C178.04705826 290.11967613 177.45425064 290.93130211 176.84347916 291.76752281 C173.85772984 295.89447747 170.95131899 300.07610935 168.04220963 304.25726891 C163.0299133 311.44982043 157.94429548 318.58333973 152.79611588 325.67914391 C149.17242409 330.67825156 145.59323078 335.7063179 142.04220963 340.75726891 C137.91834695 346.62218208 133.74895457 352.45152366 129.54220963 358.25726891 C123.30177711 366.87253527 117.16019606 375.55478655 111.04220963 384.25726891 C104.39038524 393.71910492 97.69572242 403.14557532 90.90890884 412.51117516 C86.67497633 418.36123843 82.49635854 424.24857137 78.35080338 430.16156578 C74.31268122 435.91124833 70.17710657 441.5717856 66.04220963 447.25726891 C139.96220963 447.58726891 213.88220963 447.91726891 290.04220963 448.25726891 C290.04220963 437.69726891 290.04220963 427.13726891 290.04220963 416.25726891 C311.16220963 416.25726891 332.28220963 416.25726891 354.04220963 416.25726891 C354.20264486 433.82492739 354.20264486 433.82492739 354.23752213 441.36273766 C354.26135457 446.48904726 354.28942676 451.61506875 354.34396744 456.74115562 C354.3877023 460.87793302 354.4114045 465.01440108 354.4217186 469.15139198 C354.42906074 470.72293142 354.44339728 472.29445558 354.46512985 473.86586189 C354.61537156 485.18843218 353.84526791 495.05336306 345.74533463 503.72601891 C339.49447997 509.34605337 332.55646223 512.50275502 324.08441925 512.51453781 C322.90821903 512.5209867 321.73201882 512.5274356 320.52017617 512.53407991 C318.5955856 512.5294341 318.5955856 512.5294341 316.63211441 512.52469444 C315.24812756 512.52843257 313.86414283 512.53303474 312.48016143 512.53842509 C308.68207058 512.55065055 304.88406785 512.55039516 301.08596182 512.54803634 C296.98766442 512.54762805 292.88939523 512.55866846 288.79111099 512.56815147 C280.76340659 512.58476021 272.73573156 512.59026097 264.70801142 512.59137623 C258.18172906 512.59232681 251.65545639 512.59643762 245.12917709 512.60277748 C226.62186815 512.62038995 208.11458241 512.6296164 189.60726503 512.62811653 C188.11084874 512.62799666 188.11084874 512.62799666 186.58420181 512.62787437 C185.58537136 512.62779261 184.58654091 512.62771085 183.55744287 512.62762661 C167.37235773 512.62681383 151.18736567 512.64594964 135.00230744 512.67415111 C118.37958016 512.70288638 101.75689825 512.71669103 85.1341455 512.71496356 C75.80337325 512.71429985 66.47269857 512.7197835 57.1419487 512.74131966 C49.19695394 512.75953996 41.25210098 512.76387186 33.30709437 512.75030081 C29.25518137 512.74377528 25.20354034 512.74363874 21.15165329 512.76100731 C17.43802117 512.77676187 13.72487612 512.77385054 10.01125571 512.75643905 C8.04056144 512.75192904 6.06985191 512.76700783 4.0992167 512.78291833 C-4.89327589 512.71321742 -11.71435819 511.11342518 -19.20779037 506.06976891 C-27.26589024 497.82853041 -30.42004014 489.74580431 -30.3125267 478.28461266 C-29.83412796 461.70516522 -14.56750914 446.65112963 -5.21169662 433.76117516 C-2.08979833 429.45245482 0.98268237 425.110415 4.04220963 420.75726891 C8.12245597 414.95326778 12.25088559 409.18726854 16.41720963 403.44476891 C21.02356113 397.09308517 25.55566818 390.69410272 30.04220963 384.25726891 C35.05517524 377.06517518 40.14011435 369.93121107 45.28830338 362.83539391 C48.91199466 357.83628695 52.49123135 352.8082495 56.04220963 347.75726891 C60.1225407 341.95332658 64.25088465 336.18726984 68.41720963 330.44476891 C73.02356113 324.09308517 77.55566818 317.69410272 82.04220963 311.25726891 C87.05098979 304.07118005 92.13213548 296.94351219 97.27511978 289.85297203 C105.32491372 278.74538983 113.19241345 267.50680074 121.04220963 256.25726891 C115.4452357 247.01717378 109.13135784 238.34442302 102.76828384 229.62445641 C99.99547823 225.82175157 97.23650225 222.00909206 94.47970963 218.19476891 C93.67219254 217.07799767 93.67219254 217.07799767 92.84836197 215.93866539 C88.70961944 210.20508091 84.62793938 204.43280244 80.55929947 198.64935875 C74.79406438 190.46540819 68.91666969 182.3629779 63.04220963 174.25726891 C56.15956504 164.76044477 49.30799023 155.24570381 42.56149673 145.65155602 C38.92760276 140.49136696 35.24542889 135.36788741 31.54220963 130.25726891 C27.33535039 124.45160331 23.1662569 118.62205172 19.04220963 112.75726891 C12.26130876 103.11796095 5.35273079 93.57209391 -1.57107162 84.03510094 C-4.80551055 79.57987774 -8.03071067 75.11825705 -11.24148178 70.64594078 C-12.43930571 68.97886975 -13.63970636 67.31364844 -14.84206772 65.64984703 C-16.76503957 62.98391978 -18.67514125 60.30917537 -20.58279037 57.63226891 C-21.17503403 56.81516441 -21.76727768 55.99805992 -22.37746811 55.15619469 C-29.51047085 45.08156605 -31.04950458 36.56052005 -29.95779037 24.25726891 C-27.98863647 15.67976798 -23.26854674 9.24419675 -15.95779037 4.44476891 C-10.87995337 1.34517257 -5.93620036 0.00825598 0 0 Z " fill="#ffffff" transform="translate(93.95779037475586,-0.25726890563964844)"/>
</svg>
